<svg width="209" height="197" viewBox="0 0 209 197" fill="none" xmlns="http://www.w3.org/2000/svg">
<ellipse opacity="0.5" cx="104.254" cy="98.5" rx="104" ry="98.5" fill="#5872FA"/>
<path d="M91.08 152.548C89.5999 151.63 89.3884 146.674 95.5205 145.756C99.3266 145.206 109.899 148.51 114.763 150.713C115.185 152.548 115.397 154.2 114.128 155.669C112.648 157.137 110.111 157.321 107.996 157.137C103.979 156.77 93.6174 154.2 91.08 152.548Z" fill="#D58F77"/>
<path d="M120.683 148.51C118.78 147.041 119.626 141.901 124.489 141.718C128.084 141.718 133.582 147.775 138.022 150.162C138.234 151.814 138.234 153.466 136.753 154.751C135.273 156.036 132.947 155.852 130.833 155.485C127.238 154.934 122.798 150.345 120.683 148.51Z" fill="#D58F77"/>
<path d="M91.2914 151.079C89.8112 150.162 89.3883 146.123 95.5204 145.389C99.3265 144.838 109.899 147.224 114.762 149.427C115.185 151.263 115.397 152.915 114.128 154.384C112.648 155.852 110.111 156.036 107.996 155.852C103.978 155.118 93.8288 152.731 91.2914 151.079Z" fill="#263045"/>
<path d="M120.683 146.674C119.414 145.572 119.414 141.901 125.335 141.718C128.929 141.534 133.793 146.123 138.022 148.51C138.233 150.162 138.233 151.814 136.753 153.099C135.273 154.384 132.947 154.2 130.832 153.833C127.238 153.099 122.797 148.51 120.683 146.674Z" fill="#263045"/>
<path d="M115.608 119.506C113.071 120.424 111.168 122.26 110.745 124.463C107.785 134.926 103.556 147.959 103.556 149.978C103.344 151.814 106.305 153.282 108.208 153.65C112.225 154.384 113.282 153.833 114.551 152.548C115.185 151.814 124.912 131.622 128.084 114.55C124.066 117.12 119.837 118.038 115.608 119.506Z" fill="#1E2940"/>
<path d="M127.873 112.347C128.296 128.685 126.604 147.959 127.238 149.978C128.507 152.732 137.176 153.282 137.811 150.896C138.022 149.795 142.04 129.419 141.828 107.942C136.965 110.328 132.525 109.41 127.873 112.347Z" fill="#1F2A40"/>
<path d="M174.392 134.191L128.084 110.879L127.873 54.8911L174.18 78.2039L174.392 134.191Z" fill="#C6C6C6"/>
<path d="M91.5031 114.183L45.1953 90.8701L134.428 46.2637L180.735 69.3929L91.5031 114.183Z" fill="white"/>
<path d="M91.5031 175.494L45.4068 152.365L45.1953 90.8704L91.5031 114.183V175.494Z" fill="#EBECF3"/>
<path d="M180.735 69.3933V130.888L174.392 134.192L174.18 78.2045L97.8465 116.386L98.0579 172.374L91.5029 175.494V114.183L180.735 69.3933Z" fill="#DDDDE1"/>
<path d="M151.344 75.8177L131.467 65.9051V63.5188L151.344 73.6149V75.8177Z" fill="#3A4B8F"/>
<path d="M151.864 72.5354L131.987 62.6228L146.48 55.2584L166.356 65.171L151.864 72.5354Z" fill="#5971CF"/>
<path d="M151.344 73.615L131.467 63.7025C131.467 63.3353 131.89 62.7846 132.313 62.6011L152.189 72.5136C151.555 72.6972 151.344 73.0643 151.344 73.615Z" fill="#4C61B4"/>
<path d="M151.978 76.1848C151.555 76.3684 151.132 76.1848 151.132 75.8177V73.4313C151.132 73.0642 151.555 72.5135 151.978 72.33L166.356 65.1709V65.538L165.933 65.7216L165.088 67.3737L165.933 68.6586L166.356 68.8422V69.0258L151.978 76.1848Z" fill="#4F63A3"/>
<path d="M151.555 75.8178C151.555 76.0013 151.555 76.0013 151.555 76.0013H151.766L166.145 68.8423L165.722 68.6587L164.876 67.5573L165.722 65.7217L151.978 72.6972C151.766 72.6972 151.555 72.8807 151.555 73.0643C151.343 73.2479 151.343 73.4314 151.343 73.615L151.555 75.8178Z" fill="#5E71BA"/>
<path d="M165.933 65.7217L152.189 72.6972C151.978 72.6972 151.766 72.8807 151.766 73.0643C151.555 73.2479 151.555 73.4314 151.555 73.615V75.8178L165.933 68.6587V65.7217Z" fill="#FFFFFA"/>
<path d="M151.766 71.5958L131.89 61.4997V59.2969L151.766 69.2094V71.5958Z" fill="#1935CA"/>
<path d="M152.612 68.1081L132.736 58.1955L146.903 50.8529L166.779 60.949L152.612 68.1081Z" fill="#1935CA"/>
<path d="M151.766 69.2095L131.89 59.297C131.89 58.9298 132.313 58.3791 132.735 58.1956L152.612 68.1081C152.189 68.2917 151.766 68.8424 151.766 69.2095Z" fill="#1935CA"/>
<path d="M152.612 71.963C152.189 72.1466 151.767 71.963 151.767 71.5959V69.2095C151.767 68.8424 152.189 68.2917 152.612 68.1082L166.991 60.9491V61.3162L166.568 61.4998L165.722 63.1519L166.568 64.4368L166.991 64.6204V64.804L152.612 71.963Z" fill="#1935CA"/>
<path d="M151.978 71.5959C151.978 71.7794 151.978 71.7794 151.978 71.7794H152.189L166.568 64.6204L166.145 64.4368L165.299 63.3354L166.145 61.4998L152.401 68.4752C152.19 68.4752 151.978 68.6588 151.978 68.8424C151.767 69.0259 151.767 69.2095 151.767 69.3931L151.978 71.5959Z" fill="#1935CA"/>
<path d="M166.356 61.3162L152.612 68.2916C152.4 68.2916 152.189 68.4752 152.189 68.6588C151.978 68.8423 151.978 69.0259 151.978 69.2095V71.4123L166.356 64.2532V61.3162Z" fill="#FFFFFA"/>
<path d="M141.405 57.6449L146.269 55.2585L146.057 55.075L141.194 57.4613L141.405 57.6449Z" fill="#E9BFE1"/>
<path d="M141.406 59.1131L149.018 55.2582L148.595 54.8911L140.983 58.746L141.406 59.1131Z" fill="#E9BFE1"/>
<path d="M142.674 59.6639L150.287 55.8091L149.864 55.6255L142.251 59.4804L142.674 59.6639Z" fill="#E9BFE1"/>
<path d="M143.52 78.0207L134.005 73.248C133.793 73.0645 133.37 73.0645 133.159 73.248L103.556 88.1168C103.344 88.1168 103.344 88.3004 103.344 88.3004V89.4018C103.344 89.4018 103.344 89.5854 103.556 89.5854L113.071 94.3581C113.282 94.5416 113.705 94.5416 113.917 94.3581L143.52 79.4893C143.731 79.4893 143.731 79.3057 143.731 79.3057V78.3879C143.52 78.0207 143.52 78.0207 143.52 78.0207Z" fill="#172030"/>
<path d="M112.86 83.3442L103.344 88.1169C103.133 88.1169 103.133 88.3005 103.133 88.3005V89.4019C103.133 89.4019 103.133 89.5855 103.344 89.5855L112.86 94.3582V83.3442Z" fill="#172030"/>
<path d="M143.52 78.3877L113.917 93.2565C113.705 93.4401 113.282 93.4401 113.071 93.2565L103.556 88.4838C103.344 88.3002 103.344 88.1167 103.556 87.9331L133.159 73.0643C133.37 72.8807 133.793 72.8807 134.005 73.0643L143.52 77.837C143.731 78.0206 143.731 78.2041 143.52 78.3877Z" fill="#1E2A3D"/>
<path opacity="0.9" d="M107.362 88.4839L106.093 89.0346C105.882 89.0346 105.67 89.0346 105.67 89.0346L104.402 88.4839C104.19 88.4839 104.19 88.3003 104.402 88.3003L105.67 87.7496C105.882 87.7496 106.093 87.7496 106.093 87.7496L107.151 88.3003C107.362 88.3003 107.362 88.3003 107.362 88.4839ZM109.477 87.1989L108.419 86.6483C108.208 86.6483 107.996 86.6483 107.996 86.6483L106.516 87.1989C106.305 87.1989 106.305 87.3825 106.516 87.3825L107.574 87.9332C107.785 87.9332 107.996 87.9332 107.996 87.9332L109.265 87.3825C109.477 87.3825 109.477 87.1989 109.477 87.1989ZM111.38 86.0976L110.322 85.5469C110.111 85.5469 109.899 85.5469 109.899 85.5469L108.631 86.2811C108.419 86.2811 108.419 86.4647 108.631 86.4647L109.688 87.0154C109.899 87.0154 110.111 87.0154 110.111 87.0154L111.38 86.4647C111.591 86.2811 111.591 86.0976 111.38 86.0976ZM113.494 85.1797L112.437 84.629C112.225 84.629 112.014 84.629 112.014 84.629L110.745 85.1797C110.534 85.1797 110.534 85.3633 110.745 85.3633L111.803 85.914C112.014 85.914 112.225 85.914 112.225 85.914L113.494 85.3633C113.706 85.1797 113.706 85.1797 113.494 85.1797ZM115.609 84.0783L114.551 83.5276C114.34 83.5276 114.128 83.5276 114.128 83.5276L112.86 84.0783C112.648 84.0783 112.648 84.2619 112.86 84.2619L113.917 84.8126C114.128 84.8126 114.34 84.8126 114.34 84.8126L115.609 84.2619V84.0783ZM117.723 82.9769L116.666 82.4262C116.454 82.4262 116.243 82.4262 116.243 82.4262L114.974 82.9769C114.763 82.9769 114.763 83.1605 114.974 83.1605L116.032 83.7112C116.243 83.7112 116.454 83.7112 116.454 83.7112L117.723 83.1605C117.723 83.1605 117.723 83.1605 117.723 82.9769ZM119.626 82.0591L118.569 81.5084C118.358 81.5084 118.146 81.5084 118.146 81.5084L116.877 82.0591C116.666 82.0591 116.666 82.2427 116.877 82.2427L117.935 82.7934C118.146 82.7934 118.358 82.7934 118.358 82.7934L119.626 82.2427C119.838 82.0591 119.838 82.0591 119.626 82.0591ZM121.741 80.9577L120.683 80.407C120.472 80.407 120.261 80.407 120.261 80.407L118.992 80.9577C118.78 80.9577 118.78 81.1413 118.992 81.1413L120.049 81.692C120.261 81.692 120.472 81.692 120.472 81.692L121.741 81.1413C121.952 81.1413 121.952 80.9577 121.741 80.9577ZM123.855 79.8563L122.798 79.3056C122.587 79.3056 122.375 79.3056 122.375 79.3056L121.106 79.8563C120.895 79.8563 120.895 80.0399 121.106 80.0399L122.164 80.5906C122.375 80.5906 122.587 80.5906 122.587 80.5906L123.855 80.0399C124.067 80.0399 124.067 80.0399 123.855 79.8563ZM126.604 78.5714L125.547 78.0207C125.335 78.0207 125.124 78.0207 125.124 78.0207L123.221 78.9385C123.009 78.9385 123.009 79.1221 123.221 79.1221L124.278 79.6728C124.49 79.6728 124.701 79.6728 124.701 79.6728L126.604 78.7549V78.5714ZM135.485 79.8563L134.428 79.3056C134.216 79.3056 134.005 79.3056 134.005 79.3056L132.736 79.8563C132.525 79.8563 132.525 80.0399 132.736 80.0399L133.793 80.5906C134.005 80.5906 134.216 80.5906 134.216 80.5906L135.485 80.0399C135.485 79.8563 135.485 79.8563 135.485 79.8563ZM137.6 78.7549L136.542 78.2042C136.331 78.2042 136.119 78.2042 136.119 78.2042L134.639 78.7549C134.428 78.7549 134.428 78.9385 134.639 78.9385L135.697 79.4892C135.908 79.4892 136.119 79.4892 136.119 79.4892L137.388 78.9385C137.6 78.9385 137.6 78.7549 137.6 78.7549ZM139.503 77.6535L138.445 77.1028C138.234 77.1028 138.022 77.1028 138.022 77.1028L136.754 77.6535C136.542 77.6535 136.542 77.8371 136.754 77.8371L137.811 78.3878C138.022 78.3878 138.234 78.3878 138.234 78.3878L139.503 77.8371C139.714 77.8371 139.714 77.8371 139.503 77.6535ZM137.388 80.7742L136.331 80.2235C136.119 80.2235 135.908 80.2235 135.908 80.2235L134.639 80.7742C134.428 80.7742 134.428 80.9577 134.639 80.9577L135.697 81.5084C135.908 81.5084 136.119 81.5084 136.119 81.5084L137.388 80.9577V80.7742ZM139.503 79.6728L138.234 79.1221C138.022 79.1221 137.811 79.1221 137.811 79.1221L136.542 79.6728C136.331 79.6728 136.331 79.8563 136.542 79.8563L137.6 80.407C137.811 80.407 138.022 80.407 138.022 80.407L139.291 79.8563C139.503 79.8563 139.503 79.6728 139.503 79.6728ZM141.406 78.5714L140.348 78.0207C140.137 78.0207 139.926 78.0207 139.926 78.0207L138.657 78.7549C138.445 78.7549 138.445 78.9385 138.657 78.9385L139.714 79.4892C139.926 79.4892 140.137 79.4892 140.137 79.4892L141.406 78.9385C141.617 78.7549 141.617 78.7549 141.406 78.5714ZM109.899 88.851L108.842 88.3003C108.631 88.3003 108.419 88.3003 108.419 88.3003L106.516 89.2182C106.305 89.2182 106.305 89.4017 106.516 89.4017L107.574 89.9524C107.785 89.9524 107.996 89.9524 107.996 89.9524L109.899 89.0346C110.111 89.0346 110.111 88.851 109.899 88.851ZM112.014 87.7496L110.957 87.1989C110.745 87.1989 110.534 87.1989 110.534 87.1989L109.265 87.9332C109.054 87.9332 109.054 88.1168 109.265 88.1168L110.322 88.6675C110.534 88.6675 110.745 88.6675 110.745 88.6675L112.014 88.1168C112.014 87.9332 112.014 87.7496 112.014 87.7496ZM114.128 86.6483L112.86 86.0976C112.648 86.0976 112.437 86.0976 112.437 86.0976L111.168 86.6483C110.957 86.6483 110.957 86.8318 111.168 86.8318L112.225 87.3825C112.437 87.3825 112.648 87.3825 112.648 87.3825L113.917 86.8318C114.128 86.8318 114.128 86.8318 114.128 86.6483ZM116.032 85.7304L114.974 85.1797C114.763 85.1797 114.551 85.1797 114.551 85.1797L113.283 85.7304C113.071 85.7304 113.071 85.914 113.283 85.914L114.34 86.4647C114.551 86.4647 114.763 86.4647 114.763 86.4647L116.032 85.914C116.243 85.914 116.243 85.7304 116.032 85.7304ZM118.146 84.629L117.089 84.0783C116.877 84.0783 116.666 84.0783 116.666 84.0783L115.397 84.629C115.186 84.629 115.186 84.8126 115.397 84.8126L116.454 85.3633C116.666 85.3633 116.877 85.3633 116.877 85.3633L118.146 84.8126C118.358 84.8126 118.358 84.629 118.146 84.629ZM120.261 83.7112L119.203 83.1605C118.992 83.1605 118.78 83.1605 118.78 83.1605L117.512 83.7112C117.3 83.7112 117.3 83.8948 117.512 83.8948L118.569 84.4455C118.78 84.4455 118.992 84.4455 118.992 84.4455L120.261 83.8948C120.261 83.7112 120.261 83.7112 120.261 83.7112ZM122.375 82.6098L121.318 82.0591C121.106 82.0591 120.895 82.0591 120.895 82.0591L119.626 82.6098C119.415 82.6098 119.415 82.7934 119.626 82.7934L120.683 83.3441C120.895 83.3441 121.106 83.3441 121.106 83.3441L122.375 82.7934V82.6098ZM124.278 81.5084L123.221 80.9577C123.009 80.9577 122.798 80.9577 122.798 80.9577L121.529 81.5084C121.318 81.5084 121.318 81.692 121.529 81.692L122.587 82.2427C122.798 82.2427 123.009 82.2427 123.009 82.2427L124.278 81.692C124.49 81.692 124.49 81.692 124.278 81.5084ZM126.393 80.5906L125.335 80.0399C125.124 80.0399 124.913 80.0399 124.913 80.0399L123.644 80.5906C123.432 80.5906 123.432 80.7742 123.644 80.7742L124.701 81.3249C124.913 81.3249 125.124 81.3249 125.124 81.3249L126.393 80.7742C126.604 80.5906 126.604 80.5906 126.393 80.5906ZM128.507 79.4892L127.45 78.9385C127.238 78.9385 127.027 78.9385 127.027 78.9385L125.758 79.4892C125.547 79.4892 125.547 79.6728 125.758 79.6728L126.816 80.2235C127.027 80.2235 127.238 80.2235 127.238 80.2235L128.507 79.6728C128.719 79.6728 128.719 79.4892 128.507 79.4892ZM111.168 90.136L110.111 89.5853C109.899 89.5853 109.688 89.5853 109.688 89.5853L108.419 90.136C108.208 90.136 108.208 90.3196 108.419 90.3196L109.477 90.8703C109.688 90.8703 109.899 90.8703 109.899 90.8703L111.168 90.3196V90.136ZM113.071 89.0346L112.014 88.4839C111.803 88.4839 111.591 88.4839 111.591 88.4839L110.322 89.0346C110.111 89.0346 110.111 89.2182 110.322 89.2182L111.38 89.7689C111.591 89.7689 111.803 89.7689 111.803 89.7689L113.071 89.2182C113.283 89.2182 113.283 89.0346 113.071 89.0346ZM115.186 87.9332L114.128 87.3825C113.917 87.3825 113.706 87.3825 113.706 87.3825L112.437 87.9332C112.225 87.9332 112.225 88.1168 112.437 88.1168L113.494 88.6675C113.706 88.6675 113.917 88.6675 113.917 88.6675L115.186 88.1168C115.397 88.1168 115.397 88.1168 115.186 87.9332ZM117.3 87.0154L116.243 86.4647C116.032 86.4647 115.82 86.4647 115.82 86.4647L114.551 87.0154C114.34 87.0154 114.34 87.1989 114.551 87.1989L115.609 87.7496C115.82 87.7496 116.032 87.7496 116.032 87.7496L117.3 87.1989V87.0154ZM114.763 91.9717L113.706 91.421C113.494 91.421 113.283 91.421 113.283 91.421L112.014 91.9717C111.803 91.9717 111.803 92.1552 112.014 92.1552L113.071 92.7059C113.283 92.7059 113.494 92.7059 113.494 92.7059L114.763 92.1552C114.974 92.1552 114.974 91.9717 114.763 91.9717ZM116.877 90.8703L115.82 90.3196C115.609 90.3196 115.397 90.3196 115.397 90.3196L114.128 90.8703C113.917 90.8703 113.917 91.0538 114.128 91.0538L115.186 91.6045C115.397 91.6045 115.609 91.6045 115.609 91.6045L116.877 91.0538C117.089 91.0538 117.089 91.0538 116.877 90.8703ZM118.992 89.9524L117.935 89.4017C117.723 89.4017 117.512 89.4017 117.512 89.4017L116.243 89.9524C116.032 89.9524 116.032 90.136 116.243 90.136L117.3 90.6867C117.512 90.6867 117.723 90.6867 117.723 90.6867L118.992 90.136V89.9524ZM121.106 88.851L120.049 88.3003C119.838 88.3003 119.626 88.3003 119.626 88.3003L118.358 88.851C118.146 88.851 118.146 89.0346 118.358 89.0346L119.203 89.7689C119.415 89.7689 119.626 89.7689 119.626 89.7689L120.895 89.2182C121.106 89.0346 121.106 88.851 121.106 88.851ZM134.005 82.2427L132.948 81.692C132.736 81.692 132.525 81.692 132.525 81.692L130.622 82.6098C130.41 82.6098 130.41 82.7934 130.622 82.7934L131.679 83.3441C131.89 83.3441 132.102 83.3441 132.102 83.3441L134.005 82.4262C134.216 82.4262 134.216 82.4262 134.005 82.2427ZM119.415 85.914L118.358 85.3633C118.146 85.3633 117.935 85.3633 117.935 85.3633L116.454 86.0976C116.243 86.0976 116.243 86.2811 116.454 86.2811L117.512 86.8318C117.723 86.8318 117.935 86.8318 117.935 86.8318L119.203 86.2811C119.415 86.0976 119.415 85.914 119.415 85.914ZM121.318 84.8126L120.261 84.2619C120.049 84.2619 119.838 84.2619 119.838 84.2619L118.569 84.8126C118.358 84.8126 118.358 84.9962 118.569 84.9962L119.626 85.5469C119.838 85.5469 120.049 85.5469 120.049 85.5469L121.318 84.9962C121.529 84.9962 121.529 84.9962 121.318 84.8126ZM123.432 83.8948L122.375 83.3441C122.164 83.3441 121.952 83.3441 121.952 83.3441L120.683 83.8948C120.472 83.8948 120.472 84.0783 120.683 84.0783L121.741 84.629C121.952 84.629 122.164 84.629 122.164 84.629L123.432 84.0783C123.644 84.0783 123.644 83.8948 123.432 83.8948ZM125.547 82.7934L124.49 82.2427C124.278 82.2427 124.067 82.2427 124.067 82.2427L122.798 82.7934C122.587 82.7934 122.587 82.9769 122.798 82.9769L123.855 83.5276C124.067 83.5276 124.278 83.5276 124.278 83.5276L125.547 82.9769C125.547 82.9769 125.547 82.9769 125.547 82.7934ZM127.661 81.8756L126.604 81.3249C126.393 81.3249 126.181 81.3249 126.181 81.3249L124.913 81.8756C124.701 81.8756 124.701 82.0591 124.913 82.0591L125.97 82.6098C126.181 82.6098 126.393 82.6098 126.393 82.6098L127.661 82.0591C127.661 81.8755 127.661 81.8756 127.661 81.8756ZM130.41 80.407L129.353 79.8563C129.142 79.8563 128.93 79.8563 128.93 79.8563L127.027 80.7742C126.816 80.7742 126.816 80.9577 127.027 80.9577L128.084 81.5084C128.296 81.5084 128.507 81.5084 128.507 81.5084L130.41 80.5906V80.407ZM113.706 90.6867L112.648 90.136C112.437 90.136 112.225 90.136 112.225 90.136L110.322 91.0538C110.111 91.0538 110.111 91.2374 110.322 91.2374L111.38 91.7881C111.591 91.7881 111.803 91.7881 111.803 91.7881L113.706 90.8703V90.6867ZM115.82 89.5853L114.763 89.0346C114.551 89.0346 114.34 89.0346 114.34 89.0346L112.86 89.7689C112.648 89.7689 112.648 89.9524 112.86 89.9524L113.917 90.5031C114.128 90.5031 114.34 90.5031 114.34 90.5031L115.609 89.9524C115.82 89.7689 115.82 89.7689 115.82 89.5853ZM117.723 88.6675L116.666 88.1168C116.454 88.1168 116.243 88.1168 116.243 88.1168L114.974 88.6675C114.763 88.6675 114.763 88.851 114.974 88.851L116.032 89.4017C116.243 89.4017 116.454 89.4017 116.454 89.4017L117.723 88.851C117.935 88.851 117.935 88.6675 117.723 88.6675ZM119.838 87.5661L118.78 87.0154C118.569 87.0154 118.358 87.0154 118.358 87.0154L117.089 87.7496C116.877 87.7496 116.877 87.9332 117.089 87.9332L118.146 88.4839C118.358 88.4839 118.569 88.4839 118.569 88.4839L119.838 87.9332C120.049 87.7496 120.049 87.5661 119.838 87.5661ZM121.952 86.4647L120.895 85.914C120.683 85.914 120.472 85.914 120.472 85.914L119.203 86.6483C118.992 86.6483 118.992 86.8318 119.203 86.8318L120.261 87.3825C120.472 87.3825 120.683 87.3825 120.683 87.3825L121.952 86.8318C121.952 86.6483 121.952 86.6483 121.952 86.4647ZM131.467 83.7112L130.41 83.1605C130.199 83.1605 129.987 83.1605 129.987 83.1605L120.261 87.9332C120.049 87.9332 120.049 88.1168 120.261 88.1168L121.318 88.6675C121.529 88.6675 121.741 88.6675 121.741 88.6675L131.256 83.8948C131.467 83.8948 131.467 83.7112 131.467 83.7112ZM124.067 85.5469L123.009 84.9962C122.798 84.9962 122.587 84.9962 122.587 84.9962L121.318 85.5469C121.106 85.5469 121.106 85.7304 121.318 85.7304L122.375 86.2811C122.587 86.2811 122.798 86.2811 122.798 86.2811L124.067 85.7304V85.5469ZM125.97 84.4455L124.913 83.8948C124.701 83.8948 124.49 83.8948 124.49 83.8948L123.221 84.4455C123.009 84.4455 123.009 84.629 123.221 84.629L124.278 85.1797C124.49 85.1797 124.701 85.1797 124.701 85.1797L125.97 84.629C126.181 84.629 126.181 84.4455 125.97 84.4455ZM128.084 83.3441L127.027 82.7934C126.816 82.7934 126.604 82.7934 126.604 82.7934L125.335 83.3441C125.124 83.3441 125.124 83.5276 125.335 83.5276L126.393 84.0783C126.604 84.0783 126.816 84.0783 126.816 84.0783L128.084 83.5276C128.296 83.5276 128.296 83.5276 128.084 83.3441ZM130.199 82.4262L129.142 81.8756C128.93 81.8756 128.719 81.8756 128.719 81.8756L127.45 82.4262C127.238 82.4262 127.238 82.6098 127.45 82.6098L128.507 83.1605C128.719 83.1605 128.93 83.1605 128.93 83.1605L130.199 82.6098C130.41 82.6098 130.41 82.4262 130.199 82.4262ZM132.313 81.3249L131.256 80.7742C131.045 80.7742 130.833 80.7742 130.833 80.7742L129.564 81.3249C129.353 81.3249 129.353 81.5084 129.564 81.5084L130.622 82.0591C130.833 82.0591 131.045 82.0591 131.045 82.0591L132.313 81.5084C132.313 81.5084 132.313 81.5084 132.313 81.3249ZM129.776 76.9193L128.719 76.3686C128.507 76.3686 128.296 76.3686 128.296 76.3686L127.027 76.9193C126.816 76.9193 126.816 77.1028 127.027 77.1028L128.084 77.6535C128.296 77.6535 128.507 77.6535 128.507 77.6535L129.776 77.1028C129.987 77.1028 129.987 76.9193 129.776 76.9193ZM131.89 75.8179L130.833 75.2672C130.622 75.2672 130.41 75.2672 130.41 75.2672L129.142 75.8179C128.93 75.8179 128.93 76.0015 129.142 76.0015L130.199 76.5522C130.41 76.5522 130.622 76.5522 130.622 76.5522L131.89 76.0015C131.89 76.0015 131.89 76.0015 131.89 75.8179ZM134.005 74.9001L132.948 74.3494C132.736 74.3494 132.525 74.3494 132.525 74.3494L131.256 74.9001C131.045 74.9001 131.045 75.0836 131.256 75.0836L132.313 75.6343C132.525 75.6343 132.736 75.6343 132.736 75.6343L134.005 75.0836V74.9001ZM135.908 75.8179L134.851 75.2672C134.639 75.2672 134.428 75.2672 134.428 75.2672L133.159 75.8179C132.948 75.8179 132.948 76.0015 133.159 76.0015L134.216 76.5522C134.428 76.5522 134.639 76.5522 134.639 76.5522L135.908 76.0015V75.8179ZM137.6 76.7357L136.542 76.185C136.542 76.185 136.331 76.185 136.119 76.185L134.216 77.1028H134.005L132.525 76.3686C132.313 76.3686 132.102 76.3686 131.89 76.3686L128.719 78.0207C128.507 78.0207 128.507 78.2042 128.719 78.3878L131.467 79.8563C131.679 79.8563 131.89 79.8563 132.102 79.8563L137.388 77.1028C137.811 76.9193 137.811 76.7357 137.6 76.7357Z" fill="#263144"/>
<path d="M107.362 88.3006L106.093 88.8512C105.882 88.8512 105.67 88.8512 105.67 88.8512L104.402 88.3006C104.19 88.3006 104.19 88.117 104.402 88.117L105.67 87.5663C105.882 87.5663 106.093 87.5663 106.093 87.5663L107.151 88.117C107.362 88.117 107.362 88.117 107.362 88.3006ZM109.477 87.0156L108.419 86.4649C108.208 86.4649 107.996 86.4649 107.996 86.4649L106.516 87.0156C106.305 87.0156 106.305 87.1992 106.516 87.1992L107.574 87.7499C107.785 87.7499 107.996 87.7499 107.996 87.7499L109.265 87.1992C109.477 87.1992 109.477 87.0156 109.477 87.0156ZM111.38 85.9142L110.322 85.3635C110.111 85.3635 109.899 85.3635 109.899 85.3635L108.631 86.0978C108.419 86.0978 108.419 86.2813 108.631 86.2813L109.688 86.832C109.899 86.832 110.111 86.832 110.111 86.832L111.38 86.2813C111.591 86.0978 111.591 86.0978 111.38 85.9142ZM113.494 84.9964L112.437 84.4457C112.225 84.4457 112.014 84.4457 112.014 84.4457L110.745 84.9964C110.534 84.9964 110.534 85.1799 110.745 85.1799L111.803 85.7306C112.014 85.7306 112.225 85.7306 112.225 85.7306L113.494 85.1799C113.706 85.1799 113.706 84.9964 113.494 84.9964ZM115.609 83.895L114.551 83.3443C114.34 83.3443 114.128 83.3443 114.128 83.3443L112.86 84.0786C112.648 84.0786 112.648 84.2621 112.86 84.2621L113.917 84.8128C114.128 84.8128 114.34 84.8128 114.34 84.8128L115.609 84.2621C115.609 84.0785 115.609 83.895 115.609 83.895ZM117.723 82.7936L116.666 82.2429C116.454 82.2429 116.243 82.2429 116.243 82.2429L114.974 82.7936C114.763 82.7936 114.763 82.9772 114.974 82.9772L116.032 83.5278C116.243 83.5278 116.454 83.5278 116.454 83.5278L117.723 82.9772C117.723 82.9772 117.723 82.9772 117.723 82.7936ZM119.626 81.8758L118.569 81.3251C118.358 81.3251 118.146 81.3251 118.146 81.3251L116.877 81.8758C116.666 81.8758 116.666 82.0593 116.877 82.0593L117.935 82.61C118.146 82.61 118.358 82.61 118.358 82.61L119.626 82.0593C119.838 82.0593 119.838 81.8758 119.626 81.8758ZM121.741 80.7744L120.683 80.2237C120.472 80.2237 120.261 80.2237 120.261 80.2237L118.992 80.7744C118.78 80.7744 118.78 80.9579 118.992 80.9579L120.049 81.5086C120.261 81.5086 120.472 81.5086 120.472 81.5086L121.741 80.9579C121.952 80.9579 121.952 80.7744 121.741 80.7744ZM123.855 79.673L122.798 79.1223C122.587 79.1223 122.375 79.1223 122.375 79.1223L121.106 79.673C120.895 79.673 120.895 79.8565 121.106 79.8565L122.164 80.4072C122.375 80.4072 122.587 80.4072 122.587 80.4072L123.855 79.8565C124.067 79.8565 124.067 79.8565 123.855 79.673ZM126.604 78.388L125.547 77.8373C125.335 77.8373 125.124 77.8373 125.124 77.8373L123.009 78.7552C122.798 78.7552 122.798 78.9387 123.009 78.9387L124.067 79.4894C124.278 79.4894 124.49 79.4894 124.49 79.4894L126.393 78.5716C126.604 78.5716 126.604 78.388 126.604 78.388ZM135.485 79.673L134.428 79.1223C134.216 79.1223 134.005 79.1223 134.005 79.1223L132.736 79.673C132.525 79.673 132.525 79.8565 132.736 79.8565L133.793 80.4072C134.005 80.4072 134.216 80.4072 134.216 80.4072L135.485 79.8565V79.673ZM137.6 78.5716L136.542 78.0209C136.331 78.0209 136.119 78.0209 136.119 78.0209L134.639 78.7552C134.428 78.7552 134.428 78.9387 134.639 78.9387L135.697 79.4894C135.908 79.4894 136.119 79.4894 136.119 79.4894L137.388 78.9387C137.6 78.7551 137.6 78.5716 137.6 78.5716ZM139.503 77.4702L138.445 76.9195C138.234 76.9195 138.022 76.9195 138.022 76.9195L136.754 77.4702C136.542 77.4702 136.542 77.6538 136.754 77.6538L137.811 78.2045C138.022 78.2045 138.234 78.2045 138.234 78.2045L139.503 77.6538C139.714 77.6538 139.714 77.6538 139.503 77.4702ZM137.388 80.5908L136.331 80.0401C136.119 80.0401 135.908 80.0401 135.908 80.0401L134.428 80.5908C134.216 80.5908 134.216 80.7744 134.428 80.7744L135.485 81.3251C135.697 81.3251 135.908 81.3251 135.908 81.3251L137.177 80.7744C137.388 80.7744 137.388 80.5908 137.388 80.5908ZM139.503 79.4894L138.234 78.9387C138.022 78.9387 137.811 78.9387 137.811 78.9387L136.542 79.4894C136.331 79.4894 136.331 79.673 136.542 79.673L137.6 80.2237C137.811 80.2237 138.022 80.2237 138.022 80.2237L139.291 79.673C139.503 79.673 139.503 79.673 139.503 79.4894ZM141.406 78.5716L140.348 78.0209C140.137 78.0209 139.926 78.0209 139.926 78.0209L138.657 78.5716C138.445 78.5716 138.445 78.7552 138.657 78.7552L139.714 79.3058C139.926 79.3058 140.137 79.3058 140.137 79.3058L141.406 78.7552C141.617 78.5716 141.617 78.5716 141.406 78.5716ZM109.899 88.6677L108.842 88.117C108.631 88.117 108.419 88.117 108.419 88.117L106.516 89.0348C106.305 89.0348 106.305 89.2184 106.516 89.2184L107.574 89.7691C107.785 89.7691 107.996 89.7691 107.996 89.7691L109.899 88.8512C110.111 88.8512 110.111 88.6677 109.899 88.6677ZM112.014 87.5663L110.957 87.0156C110.745 87.0156 110.534 87.0156 110.534 87.0156L109.265 87.5663C109.054 87.5663 109.054 87.7499 109.265 87.7499L110.322 88.3006C110.534 88.3006 110.745 88.3006 110.745 88.3006L112.014 87.7499C112.014 87.7499 112.014 87.7499 112.014 87.5663ZM114.128 86.6485L112.86 86.0978C112.648 86.0978 112.437 86.0978 112.437 86.0978L111.168 86.6485C110.957 86.6485 110.957 86.832 111.168 86.832L112.225 87.3827C112.437 87.3827 112.648 87.3827 112.648 87.3827L113.917 86.832C114.128 86.6485 114.128 86.6485 114.128 86.6485ZM116.032 85.5471L114.974 84.9964C114.763 84.9964 114.551 84.9964 114.551 84.9964L113.283 85.5471C113.071 85.5471 113.071 85.7306 113.283 85.7306L114.34 86.2813C114.551 86.2813 114.763 86.2813 114.763 86.2813L116.032 85.7306C116.243 85.7306 116.243 85.5471 116.032 85.5471ZM118.146 84.4457L117.089 83.895C116.877 83.895 116.666 83.895 116.666 83.895L115.397 84.4457C115.186 84.4457 115.186 84.6292 115.397 84.6292L116.454 85.1799C116.666 85.1799 116.877 85.1799 116.877 85.1799L118.146 84.6292C118.358 84.6292 118.358 84.6292 118.146 84.4457ZM120.261 83.5278L119.203 82.9772C118.992 82.9772 118.78 82.9772 118.78 82.9772L117.512 83.5278C117.3 83.5278 117.3 83.7114 117.512 83.7114L118.569 84.2621C118.78 84.2621 118.992 84.2621 118.992 84.2621L120.261 83.7114V83.5278ZM122.375 82.4265L121.318 81.8758C121.106 81.8758 120.895 81.8758 120.895 81.8758L119.626 82.4265C119.415 82.4265 119.415 82.61 119.626 82.61L120.683 83.1607C120.895 83.1607 121.106 83.1607 121.106 83.1607L122.375 82.61V82.4265ZM124.278 81.3251L123.221 80.7744C123.009 80.7744 122.798 80.7744 122.798 80.7744L121.529 81.3251C121.318 81.3251 121.318 81.5086 121.529 81.5086L122.587 82.0593C122.798 82.0593 123.009 82.0593 123.009 82.0593L124.278 81.5086C124.49 81.5086 124.49 81.5086 124.278 81.3251ZM126.393 80.4072L125.335 79.8565C125.124 79.8565 124.913 79.8565 124.913 79.8565L123.644 80.4072C123.432 80.5908 123.432 80.5908 123.644 80.5908L124.701 81.1415C124.913 81.1415 125.124 81.1415 125.124 81.1415L126.393 80.5908C126.604 80.5908 126.604 80.4072 126.393 80.4072ZM128.507 79.3058L127.45 78.7552C127.238 78.7552 127.027 78.7552 127.027 78.7552L125.758 79.3058C125.547 79.3058 125.547 79.4894 125.758 79.4894L126.816 80.0401C127.027 80.0401 127.238 80.0401 127.238 80.0401L128.507 79.4894C128.719 79.4894 128.719 79.3058 128.507 79.3058ZM111.168 89.9526L110.111 89.4019C109.899 89.4019 109.688 89.4019 109.688 89.4019L108.419 89.9526C108.208 89.9526 108.208 90.1362 108.419 90.1362L109.477 90.6869C109.688 90.6869 109.899 90.6869 109.899 90.6869L111.168 90.1362V89.9526ZM113.071 88.8512L112.014 88.3006C111.803 88.3006 111.591 88.3006 111.591 88.3006L110.322 88.8512C110.111 88.8512 110.111 89.0348 110.322 89.0348L111.38 89.5855C111.591 89.5855 111.803 89.5855 111.803 89.5855L113.071 89.0348C113.283 89.0348 113.283 88.8512 113.071 88.8512ZM115.186 87.9334L114.128 87.3827C113.917 87.3827 113.706 87.3827 113.706 87.3827L112.437 87.9334C112.225 87.9334 112.225 88.117 112.437 88.117L113.494 88.6677C113.706 88.6677 113.917 88.6677 113.917 88.6677L115.186 88.117C115.397 87.9334 115.397 87.9334 115.186 87.9334ZM117.3 86.832L116.243 86.2813C116.032 86.2813 115.82 86.2813 115.82 86.2813L114.551 86.832C114.34 86.832 114.34 87.0156 114.551 87.0156L115.609 87.5663C115.82 87.5663 116.032 87.5663 116.032 87.5663L117.3 87.0156V86.832ZM114.763 91.7883L113.706 91.2376C113.494 91.2376 113.283 91.2376 113.283 91.2376L112.014 91.7883C111.803 91.7883 111.803 91.9719 112.014 91.9719L113.071 92.5226C113.283 92.5226 113.494 92.5226 113.494 92.5226L114.763 91.9719C114.974 91.9719 114.974 91.7883 114.763 91.7883ZM116.877 90.6869L115.82 90.1362C115.609 90.1362 115.397 90.1362 115.397 90.1362L114.128 90.6869C113.917 90.6869 113.917 90.8705 114.128 90.8705L115.186 91.4212C115.397 91.4212 115.609 91.4212 115.609 91.4212L116.877 90.8705C117.089 90.8705 117.089 90.8705 116.877 90.6869ZM118.992 89.7691L117.935 89.2184C117.723 89.2184 117.512 89.2184 117.512 89.2184L116.243 89.7691C116.032 89.7691 116.032 89.9526 116.243 89.9526L117.3 90.5033C117.512 90.5033 117.723 90.5033 117.723 90.5033L118.992 89.9526V89.7691ZM121.106 88.6677L120.049 88.117C119.838 88.117 119.626 88.117 119.626 88.117L118.358 88.6677C118.146 88.6677 118.146 88.8512 118.358 88.8512L119.415 89.4019C119.626 89.4019 119.838 89.4019 119.838 89.4019L121.106 88.8512V88.6677ZM134.005 82.0593L132.948 81.5086C132.736 81.5086 132.525 81.5086 132.525 81.5086L130.622 82.4265C130.41 82.4265 130.41 82.61 130.622 82.61L131.679 83.1607C131.89 83.1607 132.102 83.1607 132.102 83.1607L134.005 82.4265C134.216 82.2429 134.216 82.2429 134.005 82.0593ZM119.415 85.7306L118.358 85.1799C118.146 85.1799 117.935 85.1799 117.935 85.1799L116.666 85.7306C116.454 85.7306 116.454 85.9142 116.666 85.9142L117.723 86.4649C117.935 86.4649 118.146 86.4649 118.146 86.4649L119.415 85.9142C119.415 85.9142 119.415 85.9142 119.415 85.7306ZM121.318 84.8128L120.261 84.2621C120.049 84.2621 119.838 84.2621 119.838 84.2621L118.569 84.8128C118.358 84.8128 118.358 84.9964 118.569 84.9964L119.626 85.5471C119.838 85.5471 120.049 85.5471 120.049 85.5471L121.318 84.9964C121.529 84.8128 121.529 84.8128 121.318 84.8128ZM123.432 83.7114L122.375 83.1607C122.164 83.1607 121.952 83.1607 121.952 83.1607L120.683 83.7114C120.472 83.7114 120.472 83.895 120.683 83.895L121.741 84.4457C121.952 84.4457 122.164 84.4457 122.164 84.4457L123.432 83.895C123.644 83.895 123.644 83.7114 123.432 83.7114ZM125.547 82.61L124.49 82.0593C124.278 82.0593 124.067 82.0593 124.067 82.0593L122.798 82.61C122.587 82.61 122.587 82.7936 122.798 82.7936L123.855 83.3443C124.067 83.3443 124.278 83.3443 124.278 83.3443L125.547 82.7936C125.547 82.7936 125.547 82.7936 125.547 82.61ZM127.661 81.6922L126.604 81.1415C126.393 81.1415 126.181 81.1415 126.181 81.1415L124.913 81.6922C124.701 81.6922 124.701 81.8758 124.913 81.8758L125.97 82.4265C126.181 82.4265 126.393 82.4265 126.393 82.4265L127.661 81.8758V81.6922ZM130.41 80.2237L129.353 79.673C129.142 79.673 128.93 79.673 128.93 79.673L127.027 80.5908C126.816 80.5908 126.816 80.7744 127.027 80.7744L128.084 81.3251C128.296 81.3251 128.507 81.3251 128.507 81.3251L130.41 80.4072C130.41 80.4072 130.41 80.4072 130.41 80.2237ZM113.706 90.5033L112.648 89.9526C112.437 89.9526 112.225 89.9526 112.225 89.9526L110.322 90.8705C110.111 90.8705 110.111 91.054 110.322 91.054L111.38 91.6047C111.591 91.6047 111.803 91.6047 111.803 91.6047L113.706 90.6869V90.5033ZM115.82 89.4019L114.763 88.8512C114.551 88.8512 114.34 88.8512 114.34 88.8512L112.86 89.5855V89.7691L113.917 90.3198C114.128 90.3198 114.34 90.3198 114.34 90.3198L115.609 89.7691C115.82 89.5855 115.82 89.5855 115.82 89.4019ZM117.723 88.4841L116.666 87.9334C116.454 87.9334 116.243 87.9334 116.243 87.9334L114.974 88.4841C114.763 88.4841 114.763 88.6677 114.974 88.6677L116.032 89.2184C116.243 89.2184 116.454 89.2184 116.454 89.2184L117.723 88.6677C117.935 88.6677 117.935 88.4841 117.723 88.4841ZM119.838 87.3827L118.78 86.832C118.569 86.832 118.358 86.832 118.358 86.832L117.089 87.5663C116.877 87.5663 116.877 87.7499 117.089 87.7499L118.146 88.3006C118.358 88.3006 118.569 88.3006 118.569 88.3006L119.838 87.7499C120.049 87.5663 120.049 87.3827 119.838 87.3827ZM121.952 86.4649L120.895 85.9142C120.683 85.9142 120.472 85.9142 120.472 85.9142L119.203 86.4649C118.992 86.4649 118.992 86.6485 119.203 86.6485L120.261 87.1992C120.472 87.1992 120.683 87.1992 120.683 87.1992L121.952 86.6485C121.952 86.4649 121.952 86.4649 121.952 86.4649ZM131.467 83.5278L130.41 82.9772C130.199 82.9772 129.987 82.9772 129.987 82.9772L120.472 87.7499C120.261 87.7499 120.261 87.9334 120.472 87.9334L121.529 88.4841C121.741 88.4841 121.952 88.4841 121.952 88.4841L131.467 83.7114V83.5278ZM124.067 85.3635L123.009 84.8128C122.798 84.8128 122.587 84.8128 122.587 84.8128L121.318 85.3635C121.106 85.3635 121.106 85.5471 121.318 85.5471L122.375 86.0978C122.587 86.0978 122.798 86.0978 122.798 86.0978L124.067 85.5471V85.3635ZM125.97 84.2621L124.913 83.7114C124.701 83.7114 124.49 83.7114 124.49 83.7114L123.221 84.2621C123.009 84.2621 123.009 84.4457 123.221 84.4457L124.278 84.9964C124.49 84.9964 124.701 84.9964 124.701 84.9964L125.97 84.4457C126.181 84.4457 126.181 84.4457 125.97 84.2621ZM128.084 83.3443L127.027 82.7936C126.816 82.7936 126.604 82.7936 126.604 82.7936L125.335 83.3443C125.124 83.3443 125.124 83.5278 125.335 83.5278L126.393 84.0786C126.604 84.0786 126.816 84.0786 126.816 84.0786L128.084 83.5278C128.296 83.3443 128.296 83.3443 128.084 83.3443ZM130.199 82.2429L129.142 81.6922C128.93 81.6922 128.719 81.6922 128.719 81.6922L127.45 82.2429C127.238 82.2429 127.238 82.4265 127.45 82.4265L128.507 82.9772C128.719 82.9772 128.93 82.9772 128.93 82.9772L130.199 82.4265C130.41 82.4265 130.41 82.2429 130.199 82.2429ZM132.313 81.1415L131.256 80.5908C131.045 80.5908 130.833 80.5908 130.833 80.5908L129.564 81.1415C129.353 81.1415 129.353 81.3251 129.564 81.3251L130.622 81.8758C130.833 81.8758 131.045 81.8758 131.045 81.8758L132.313 81.3251C132.313 81.3251 132.313 81.3251 132.313 81.1415ZM129.776 76.7359L128.719 76.1852C128.507 76.1852 128.296 76.1852 128.296 76.1852L127.027 76.9195C126.816 76.9195 126.816 77.1031 127.027 77.1031L128.084 77.6538C128.296 77.6538 128.507 77.6538 128.507 77.6538L129.776 76.9195C129.987 76.9195 129.987 76.9195 129.776 76.7359ZM131.89 75.8181L130.833 75.2674C130.622 75.2674 130.41 75.2674 130.41 75.2674L129.142 75.8181C128.93 75.8181 128.93 76.0017 129.142 76.0017L130.199 76.5524C130.41 76.5524 130.622 76.5524 130.622 76.5524L131.89 76.0017C131.89 75.8181 131.89 75.8181 131.89 75.8181ZM134.005 74.7167L132.948 74.166C132.736 74.166 132.525 74.166 132.525 74.166L131.256 74.7167C131.045 74.7167 131.045 74.9003 131.256 74.9003L132.313 75.451C132.525 75.451 132.736 75.451 132.736 75.451L134.005 74.9003V74.7167ZM135.908 75.6345L134.639 75.0838C134.428 75.0838 134.216 75.0838 134.216 75.0838L132.948 75.6345C132.736 75.6345 132.736 75.8181 132.948 75.8181L134.005 76.3688C134.216 76.3688 134.428 76.3688 134.428 76.3688L135.697 75.8181C135.908 75.8181 135.908 75.6345 135.908 75.6345ZM137.6 76.5524L136.542 76.0017C136.542 76.0017 136.331 76.0017 136.119 76.0017L134.428 76.9195H134.216L132.736 76.1852C132.525 76.1852 132.313 76.1852 132.102 76.1852L128.93 77.8373C128.719 77.8373 128.719 78.0209 128.93 78.2045L131.679 79.673C131.89 79.673 132.102 79.673 132.313 79.673L137.6 76.9195C137.811 76.7359 137.811 76.5524 137.6 76.5524Z" fill="#364157"/>
<path d="M164.665 151.263L128.084 169.986L150.075 181L186.868 162.46L164.665 151.263Z" fill="#F9F9FB"/>
<path d="M187.29 162.828C187.29 162.644 187.079 162.644 187.079 162.644C187.079 162.644 187.079 162.644 186.867 162.461L150.075 181.001L150.286 184.489L187.079 165.948C187.713 165.581 187.713 163.562 187.29 162.828Z" fill="#DDDDDF"/>
<path d="M163.819 150.529C163.396 150.161 162.973 149.611 162.762 148.877C162.339 148.142 162.128 147.224 162.128 146.49V119.69C162.128 118.588 162.551 118.038 163.185 117.67L125.335 134.558C124.701 134.926 124.066 137.128 124.066 138.23L124.374 166.052C124.374 166.786 124.585 167.704 125.008 168.438C125.22 168.989 125.642 169.539 126.065 170.09C126.488 170.457 126.7 170.641 127.123 170.824L165.088 151.263C164.454 151.079 164.031 150.896 163.819 150.529Z" fill="#DDDDE1"/>
<path d="M164.876 114.55C163.396 113.815 162.128 113.815 161.07 114.366L124.278 133.744C125.335 133.193 126.604 133.193 128.084 133.928L147.749 143.84L184.541 124.279L164.876 114.55Z" fill="white"/>
<path d="M171.221 67.9243C169.529 69.0257 171.644 78.3875 163.608 80.7739C162.763 80.9574 161.283 80.4067 160.648 80.2232C159.168 79.856 146.058 75.634 146.058 75.634C145.424 75.2669 143.732 73.6148 142.252 72.8805C141.195 72.3299 140.137 71.9627 139.08 71.7792C138.869 71.7792 138.234 71.7792 137.811 71.7792C134.851 72.8806 132.314 75.0833 131.891 75.4505C131.679 75.634 131.468 75.8176 131.679 76.0012C131.679 76.1847 131.891 76.1847 132.102 76.1847C131.891 76.7354 132.525 76.919 132.737 76.919C133.16 76.919 134.005 76.5519 134.005 76.5519C134.217 76.5519 134.428 76.5519 134.64 76.5519C136.543 76.919 138.657 77.2861 139.08 77.6533C139.715 78.0204 138.234 78.7546 138.234 78.7546C138.234 78.7546 136.331 78.5711 136.12 78.5711C135.485 78.5711 134.64 78.9382 134.851 79.3053C134.851 79.6725 135.274 79.6725 135.486 79.856C136.12 80.0396 138.023 80.4067 138.023 80.4067C138.657 80.2232 142.886 79.6725 142.886 79.6725C142.886 79.6725 174.604 87.9329 175.027 87.9329C176.084 88.1165 179.467 83.7109 179.89 79.856C180.525 76.0012 176.93 64.4365 171.221 67.9243Z" fill="#FFCCAA"/>
<path d="M175.238 81.8753C177.141 81.6917 179.467 81.141 180.736 80.4068C180.736 77.2861 180.736 70.1271 180.101 67.19C178.41 60.5817 169.529 58.1953 167.837 67.5572C167.203 70.4942 166.78 80.0396 166.78 80.0396C169.106 81.6917 172.278 82.0589 175.238 81.8753Z" fill="#FB6D3A"/>
<path d="M174.815 113.448C174.815 113.448 142.674 107.941 139.714 107.024C130.622 104.637 125.97 113.265 126.393 114.733C120.472 113.815 112.648 115.1 110.111 126.298L113.283 124.646C117.512 127.032 136.965 133.641 143.52 136.394C151.344 139.515 173.758 131.621 174.603 123.912C174.603 123.912 174.815 114.55 174.815 113.448Z" fill="#1E2940"/>
<path d="M174.392 61.8666C166.78 61.683 150.921 70.4942 147.115 73.0641C147.115 73.0641 147.326 82.6095 146.269 92.7056C145.846 98.029 142.886 115.651 142.251 119.506C142.251 120.057 142.251 120.791 142.886 121.158C150.287 127.216 170.374 124.462 175.026 114.733C175.026 104.821 179.89 62.4173 174.392 61.8666Z" fill="#FB6D3A"/>
<path d="M169.105 63.7023C168.894 63.5187 168.894 63.3351 168.894 62.968C168.894 62.4173 168.894 61.8666 168.894 61.3159C168.894 60.5817 168.894 59.6638 168.683 58.9296C168.471 57.8282 166.991 58.1953 165.934 58.0117C164.242 57.4611 162.55 57.461 160.647 57.2775C160.436 57.2775 160.013 57.2775 159.802 57.0939C159.379 56.9104 159.167 56.7268 158.744 56.7268C158.533 56.7268 158.11 56.7268 157.687 56.5432C157.476 56.5432 155.361 55.9925 155.361 55.809C155.995 58.3789 156.63 64.4365 156.63 67.5571C156.63 67.5571 153.458 69.5764 153.035 69.7599C156.207 72.1463 163.819 70.1271 168.048 67.19C168.683 66.6393 169.528 66.0886 169.74 65.3544C169.951 64.6201 169.317 64.253 169.105 63.7023Z" fill="#FFCCAA"/>
<path d="M153.458 78.9382C151.767 75.2669 147.115 74.3491 144.155 78.2039C142.886 79.856 141.829 84.9959 138.657 92.8892L137.388 92.3385C125.758 86.8315 125.124 87.0151 124.701 85.7301C124.278 84.8123 123.644 82.9766 123.221 82.6095C123.221 82.6095 121.529 81.141 121.106 80.9574C120.895 80.7739 120.472 80.7739 120.049 80.9574C119.838 81.141 119.838 81.3246 119.838 81.5081C119.626 81.5081 119.203 81.3246 118.992 81.3246C115.609 81.5081 113.706 83.7109 113.494 83.8945C113.071 84.078 113.071 84.078 113.071 84.4452C113.071 84.6287 113.283 84.6287 113.494 84.8123C113.071 85.1794 113.494 85.5466 113.917 85.5466C114.34 85.5466 115.186 85.5466 115.186 85.5466C115.397 85.5466 115.609 85.5466 115.82 85.7301C117.512 86.648 118.146 86.8315 118.358 87.3822C123.855 92.7056 140.137 103.169 143.52 101.333C148.807 98.3961 155.573 83.7109 153.458 78.9382Z" fill="#FFCCAA"/>
<path d="M146.058 93.4398C147.961 93.6233 150.287 93.6233 151.767 93.0726C152.613 90.1356 154.516 82.9765 154.516 79.6724C154.727 72.6969 146.692 68.6584 142.674 77.6531C141.406 80.4066 138.445 89.7685 138.445 89.7685C140.137 91.9712 143.097 93.0726 146.058 93.4398Z" fill="#FB6D3A"/>
<path d="M150.709 107.024L150.075 119.69L150.498 146.123C150.498 146.674 150.286 147.041 150.075 147.225L186.867 128.501C187.079 128.317 187.29 127.95 187.29 127.4V88.4836L150.709 107.024Z" fill="#DDDDDF"/>
<path d="M187.502 88.2999C187.502 88.1164 187.29 88.1164 187.29 87.9328C187.079 87.5657 186.656 87.3821 186.233 87.1985C185.599 87.015 185.176 86.8314 184.964 86.8314L147.96 105.372L150.709 107.024L187.502 88.4835V88.2999Z" fill="white"/>
<path d="M150.075 181L128.084 169.986C126.604 169.252 125.124 167.049 125.124 165.214V138.413C125.124 136.577 126.393 135.66 128.084 136.577L149.229 147.224C150.075 147.591 150.709 147.224 150.709 146.306V107.391C150.709 106.84 149.864 106.289 149.229 105.922C148.384 105.555 147.749 105.371 147.749 105.922V143.186L128.084 133.273C124.912 131.621 122.164 133.273 122.164 137.128V163.929C122.164 167.6 124.701 172.006 128.084 173.658L150.075 184.672C150.921 184.855 150.921 181.367 150.075 181Z" fill="#EBECF3"/>
<path d="M150.498 53.0555C150.709 55.0748 151.132 56.9104 151.343 58.9296C151.766 60.7653 152.189 62.6009 152.612 64.253C152.612 64.6202 152.824 64.9873 153.035 65.3544C153.246 65.7216 153.669 65.9051 154.092 66.2723C156.207 67.3736 157.898 67.0065 160.224 66.823C162.127 66.6394 163.819 66.0887 165.511 65.3544C166.568 64.9873 167.414 64.4366 168.048 63.5188C168.471 62.7845 168.682 62.0502 168.682 61.1324C168.682 57.2775 166.779 53.7898 164.665 50.4856C164.03 49.5678 163.608 48.65 162.762 47.9157C161.07 46.2636 158.321 45.7129 155.572 45.3458C154.092 45.1622 152.189 44.9787 151.132 46.0801C150.286 46.8143 150.075 47.9157 150.075 48.8335C150.075 49.9349 150.286 51.587 150.498 53.0555Z" fill="#FFCCAA"/>
<path d="M149.229 47.5486C149.44 49.2007 150.074 50.8528 150.286 51.5871C150.286 51.7706 150.497 52.1378 150.709 52.3213C151.132 53.0556 151.766 53.7898 151.977 54.5241C152.189 55.4419 151.977 56.5433 152.823 57.2776C153.035 57.4612 153.246 57.6447 153.458 57.4612C153.669 57.4612 153.881 57.094 153.881 56.9105C154.092 56.3598 154.303 55.2584 154.938 55.0748C155.784 54.8912 156.841 55.9926 157.052 56.5433C157.475 57.4612 157.052 58.379 157.264 59.2968C157.475 61.316 158.11 62.9681 160.435 63.1517C161.916 63.3352 163.607 63.3352 165.087 62.9681C169.316 62.0503 172.065 59.1132 172.488 55.6255C173.123 51.9542 172.911 47.3651 170.374 44.0609C168.682 41.6745 165.087 40.9403 161.704 41.3074C158.744 41.6745 156.629 41.6745 152.4 43.6937C150.92 44.428 149.017 46.2637 149.229 47.5486Z" fill="#2E2C34"/>
<path d="M149.229 47.5485C149.44 49.2006 150.074 50.8527 150.286 51.5869C150.286 51.7705 150.497 52.1376 150.709 52.3212C154.726 49.7513 156.206 46.8142 152.612 43.6936C150.92 44.4279 149.017 46.2635 149.229 47.5485Z" fill="#2E2C34"/>
<path d="M109.265 71.2285L94.04 78.9383L100.384 82.0589L115.608 74.5327L109.265 71.2285Z" fill="#1E2A3D"/>
<path d="M115.608 74.533L100.383 82.0591C100.383 82.2427 100.383 82.6098 100.383 82.7934L115.608 75.0837C115.819 75.2672 115.819 74.7165 115.608 74.533Z" fill="#1D293C"/>
<path d="M107.996 69.9437C107.784 69.393 107.573 68.8424 107.784 68.4752L112.013 60.5819L96.7888 68.2917L92.5598 76.185C92.3483 76.5521 92.3483 77.1028 92.7712 77.6535C92.9827 78.0206 93.0709 78.2709 93.2824 78.4545C93.4938 78.638 93.8688 78.9652 94.0399 78.9384L109.264 71.2287C109.053 71.0451 108.842 70.8616 108.63 70.678C108.419 70.4944 108.207 70.3109 107.996 69.9437Z" fill="#172030"/>
<path d="M100.384 82.0592L94.04 78.9386C93.6171 78.755 93.1942 78.2043 92.7713 77.6536C92.5599 77.1029 92.3484 76.5522 92.5599 76.1851L96.7889 68.2918V68.1082V60.3985C96.7889 60.2149 96.5774 59.8478 96.366 59.8478C96.1545 59.6642 95.9431 59.8478 95.9431 60.0313V67.7411L91.9255 75.6344C91.7141 76.1851 91.7141 76.9194 92.137 77.8372C92.5599 78.755 93.1942 79.4893 94.04 79.8564L100.384 82.7837C100.595 82.7837 100.595 82.2428 100.384 82.0592Z" fill="#1D293C"/>
<path d="M112.013 52.5051C112.013 52.5051 112.013 52.3215 111.802 52.3215L111.59 52.1379H111.379L96.1543 59.8477H96.3657C96.3657 59.8477 96.5772 59.8477 96.5772 60.0312L96.7886 60.2148V60.3984V68.1081V68.2917L112.013 60.5819V60.3984V52.6886V52.5051Z" fill="#B2B9BB"/>
<path d="M137.811 9.73413L138.022 50.8528L68.6661 85.5467L68.0318 78.5712L67.6089 43.8773L137.811 9.73413Z" fill="#1E2A3D"/>
<path d="M68.6662 85.5468L67.3975 84.9961L67.186 43.6938L68.6662 44.4281V85.5468Z" fill="#1D293C"/>
<path d="M68.6662 44.4281L67.186 43.6939L136.542 9L137.811 9.73426L68.6662 44.4281Z" fill="#34455F"/>
<path opacity="0.1" d="M69.0894 44.6117L137.388 10.4685V44.061L69.0894 78.2042V44.6117Z" fill="#A39DAB"/>
<path opacity="0.8" d="M75.2212 44.2445C76.067 43.8774 76.4899 44.9788 75.8556 45.8966C75.4327 46.8144 74.5869 46.998 74.5869 45.8966C74.164 46.6308 73.3182 48.0994 73.3182 47.1815C73.3182 46.6308 73.5296 45.5295 73.5296 44.9788C73.5296 44.7952 73.5296 44.7952 73.7411 44.7952C73.7411 44.7952 73.7411 44.7952 73.7411 44.9788C73.5296 45.713 73.5296 46.4473 73.5296 46.998C73.7411 46.6308 73.9525 46.4473 74.164 46.0802C74.5869 45.5295 74.7983 45.3459 74.7983 45.8966C74.7983 46.0802 75.0098 46.2637 75.2212 46.2637C76.067 45.8966 76.067 43.8774 75.2212 44.2445C75.2212 44.6116 75.0098 44.6116 75.2212 44.2445C75.0098 44.4281 75.0098 44.4281 75.2212 44.2445ZM79.6617 43.5102C79.6617 43.5102 77.5472 44.9788 77.5472 44.7952C77.3357 44.7952 79.6617 43.3267 79.6617 43.5102ZM79.6617 42.776L79.2388 42.9595C76.2785 44.9788 77.7586 43.6938 79.6617 42.776C79.8732 42.776 79.6617 42.5924 79.6617 42.776ZM81.3533 44.4281C81.1419 44.6116 80.9304 44.9788 80.9304 44.6116C80.9304 44.4281 81.3533 43.1431 81.3533 43.1431C80.719 44.2445 79.6617 44.4281 80.2961 43.1431C80.9304 41.6746 81.7762 41.491 81.7762 41.8581C81.7762 42.0417 81.7762 42.0417 81.5648 41.8581C80.9304 41.6746 79.8732 44.0609 80.5075 43.6938C80.9304 43.5102 81.3533 42.9595 81.5648 42.2253C81.5648 42.2253 81.7762 42.0417 81.7762 42.2253C81.7762 42.4088 81.1419 44.2445 81.1419 44.4281C81.7762 43.8774 81.9877 43.6938 81.3533 44.4281ZM82.622 40.5732C82.8335 40.7568 82.622 41.3075 82.4106 41.491C81.7762 44.0609 83.6793 42.0417 83.6793 40.5732C83.6793 40.3896 83.6793 39.8389 83.8907 40.0225C84.1022 40.2061 83.6793 41.6746 83.6793 42.0417C83.0449 43.3267 82.1991 43.3267 82.1991 42.776C82.1991 42.5924 82.622 40.5732 82.622 40.5732ZM85.3709 41.8581C85.3709 41.6746 86.851 37.8197 86.851 38.0033C87.0625 38.1868 85.5823 41.491 85.3709 41.6746C85.5823 41.8581 85.5823 42.0417 85.3709 41.8581ZM88.1197 38.1868L87.9083 38.3704C87.6968 38.3704 88.5427 37.269 88.9656 37.4526C89.5999 37.6361 88.5426 39.1047 88.1197 39.4718C87.9083 39.6554 87.6968 40.0225 87.4854 40.2061C87.6968 40.2061 88.9656 39.1047 88.9656 39.2882C88.9656 39.4718 87.6968 40.2061 87.4854 40.2061C87.2739 40.2061 87.2739 40.2061 87.2739 40.2061C87.2739 40.0225 87.6968 39.6554 87.9083 39.4718C89.177 38.0033 88.9656 37.269 88.5427 37.6361C88.3312 37.8197 88.1197 38.0033 88.1197 38.1868ZM91.7144 37.269C91.9259 37.269 91.9259 37.269 91.9259 37.269L90.8686 38.0033C88.9656 39.2882 89.8114 38.3704 91.7144 37.269ZM91.2915 37.0854C89.5999 38.1868 89.3885 38.0033 90.8686 37.269C92.1373 36.3512 92.7717 36.1676 91.2915 37.0854ZM92.7717 38.7375C92.7717 38.7375 92.5602 39.1047 92.3488 39.1047C92.1373 39.2882 92.5602 37.8197 92.7717 37.4526C92.5602 37.8197 91.9259 38.3704 91.7144 38.3704C91.0801 38.1868 92.3488 36.3512 92.7717 36.1676C93.1946 35.9841 93.406 36.5347 92.9831 36.3512C92.7717 36.3512 92.5602 36.5347 92.3488 36.9019C90.8686 39.1047 92.5602 38.554 92.9831 36.9019C92.9831 36.9019 93.1946 36.7183 93.1946 36.9019C93.1946 37.0854 92.5602 38.9211 92.5602 39.1047C93.1946 38.1868 93.6175 38.0033 92.7717 38.7375ZM94.6747 35.4334C94.8862 35.4334 94.0404 35.9841 94.0404 35.9841C93.6175 36.1676 93.8289 35.8005 94.2518 35.4334C94.8862 34.6991 94.6747 34.332 94.2518 34.6991C94.0404 34.8827 93.8289 34.8827 94.2518 34.5155C94.6747 33.9648 95.0976 34.332 94.6747 35.0662C94.4633 35.2498 94.2518 35.4334 94.0404 35.8005C94.6747 35.2498 94.6747 35.4334 94.6747 35.4334ZM95.0976 37.0854C94.8862 37.0854 96.5778 33.047 96.5778 33.2306C97.0007 33.047 96.3663 34.332 96.1549 34.6991C95.732 35.6169 95.732 35.9841 95.3091 36.9019C95.0976 36.9019 95.0976 37.0854 95.0976 37.0854ZM97.635 33.4141C97.4236 33.5977 97.2121 33.5977 97.635 33.2306C98.6923 32.1292 99.7496 32.8634 97.2121 35.6169C97.4236 35.6169 98.6923 34.5155 98.6923 34.6991C98.6923 34.8827 97.4236 35.6169 97.2121 35.6169C97.0007 35.6169 97.0007 35.6169 97.0007 35.6169C97.0007 35.4334 97.4236 35.0662 97.635 34.8827C99.1152 32.8634 98.4808 32.4963 97.635 33.4141ZM101.864 30.8442V31.762C101.441 30.8442 100.384 31.5785 99.961 32.4963C99.3267 34.332 100.807 34.5155 101.864 32.8634C101.653 33.2306 101.441 33.4141 101.441 33.5977C99.3267 35.8005 98.2694 32.6799 100.807 31.3949C101.23 31.2113 101.653 31.2114 101.653 31.2114C101.653 31.0278 101.653 31.0278 101.864 30.8442ZM104.613 31.0278C104.613 31.0278 102.498 32.4963 102.498 32.3127C102.287 32.3127 104.613 30.8442 104.613 31.0278ZM104.613 30.2935L104.19 30.4771C101.23 32.4963 102.71 31.0278 104.613 30.2935C104.613 30.2935 104.613 30.11 104.613 30.2935ZM105.882 29.1921C105.247 29.1921 104.401 30.8442 104.401 31.3949C104.401 31.762 104.824 31.762 105.459 31.0278C106.093 30.2935 105.882 30.8442 105.247 31.3949C104.401 32.1292 103.556 31.9456 104.19 30.6607C104.613 30.11 105.247 29.1921 105.882 29.1921C106.305 29.1921 106.093 28.825 105.882 29.1921ZM107.15 28.4579C107.362 28.6414 106.727 30.2935 106.939 30.6607C107.15 30.8442 108.419 29.5593 108.208 28.0907C108.208 27.9072 108.208 27.9072 108.208 27.9072C108.208 27.9072 108.419 27.9072 108.419 28.0907C108.419 30.4771 106.093 32.4963 106.727 29.7428C106.939 28.825 106.939 28.4579 107.15 28.4579C106.939 28.4579 106.939 28.2743 107.15 28.4579ZM111.168 27.1729C111.168 26.9893 111.168 26.9893 111.168 27.1729C111.379 26.9893 111.379 26.9893 111.168 27.1729C111.168 27.3565 110.534 27.7236 110.534 27.7236H110.322L110.745 27.1729C110.956 26.9893 111.168 26.6222 111.168 26.4387C111.168 26.2551 110.956 26.2551 110.745 26.4387L110.534 26.6222C110.322 26.6222 110.534 26.4387 110.534 26.4387C110.745 26.2551 110.956 26.0715 111.168 26.2551C111.379 26.4386 111.168 26.8058 111.168 26.9893C110.956 27.1729 110.745 27.3565 110.534 27.7236C111.168 26.9893 111.168 27.1729 111.168 27.1729ZM111.591 28.825C111.379 28.825 112.86 25.1537 113.071 25.1537V24.9701C113.071 24.9701 113.282 24.9701 113.282 25.1537C113.282 25.3373 112.86 26.2551 112.86 26.4387C112.437 27.3565 112.437 27.7236 112.014 28.6414C111.802 28.6414 111.802 28.825 111.591 28.825ZM114.34 25.1537C114.128 25.1537 114.128 25.1537 114.34 25.1537C114.128 25.3373 113.917 25.3373 114.34 24.9701C114.551 24.7866 114.974 24.4194 115.185 24.603C115.397 24.7866 115.397 25.1537 115.185 25.5208C114.974 26.0715 114.128 26.9893 113.705 27.54C113.705 27.54 114.128 27.3565 114.34 27.1729C115.185 26.6222 115.185 26.6222 115.185 26.6222C115.185 26.8058 113.917 27.7236 113.494 27.7236C113.494 27.7236 113.494 27.54 113.705 27.54C113.705 27.3565 113.917 27.1729 114.128 27.1729C115.82 24.603 114.974 24.0523 114.34 25.1537ZM73.9525 50.3022C73.9525 50.1186 73.9525 50.3022 73.9525 50.3022C74.3754 50.4857 73.5296 52.8721 73.5296 52.8721C73.3182 53.0556 73.5296 51.9542 73.7411 51.5871C73.9525 50.4857 73.9525 50.3022 73.9525 50.3022ZM75.2212 52.6885L75.4327 50.3022C75.4327 50.1186 75.6441 50.1186 75.6441 50.3022C75.6441 50.4857 75.4327 52.8721 75.2212 52.6885ZM78.6045 49.3843C78.6045 49.3843 76.4899 50.8529 76.4899 50.6693C76.067 50.6693 78.6045 49.2008 78.6045 49.3843ZM78.6045 48.6501L78.1815 48.8336C75.2212 50.8529 76.4899 49.5679 78.6045 48.6501C78.6045 48.6501 78.6045 48.4665 78.6045 48.6501ZM79.4503 47.5487C79.4503 47.5487 79.6617 47.3651 79.4503 47.5487C79.6617 47.7322 79.0274 50.3022 79.0274 50.1186C78.8159 50.1186 79.4503 47.3651 79.4503 47.5487ZM81.1419 47.5487L80.9304 47.7322C80.719 47.7322 81.5648 46.6308 81.9877 46.8144C82.8335 47.1815 81.1419 49.0172 80.5075 49.5679C80.719 49.3843 81.7762 48.8336 81.9877 48.6501C82.622 48.4665 80.2961 50.1186 80.5075 49.5679C80.5075 49.3843 81.3533 48.4665 81.5648 48.2829C82.4106 47.1815 81.9877 46.8144 81.7762 46.8144C81.5648 47.3651 81.3533 47.5487 81.1419 47.5487ZM84.1022 46.6308C84.1022 46.6308 81.9877 48.0994 81.9877 47.9158C81.7762 47.9158 84.1022 46.4473 84.1022 46.6308ZM84.1022 45.8966L83.6793 46.0802C80.719 48.0994 81.9877 46.8144 84.1022 45.8966C84.3136 45.713 84.1022 45.713 84.1022 45.8966ZM84.948 44.7952C84.948 44.6116 85.1594 44.6116 84.948 44.7952C85.3709 44.9788 84.5251 47.3651 84.5251 47.3651C84.3136 47.5487 84.5251 46.4473 84.7365 46.0802C84.948 44.9788 84.948 44.7952 84.948 44.7952ZM85.7938 47.1815C86.2167 46.8144 86.0052 46.6308 86.0052 46.6308C85.7938 46.6308 86.0052 46.2637 86.2167 46.2637C86.4281 46.2637 86.2167 46.8144 86.0052 46.998C85.5823 47.5487 85.3709 47.7322 85.7938 47.1815ZM88.7541 42.9595C88.9656 43.1431 88.7541 43.6938 88.5427 43.8774C87.9083 46.4473 89.8114 44.4281 89.8114 42.9595C89.8114 42.776 89.8114 42.2253 90.0228 42.4088C90.4457 42.5924 89.8114 44.7952 88.7541 45.3459C88.3312 45.5295 88.1197 45.3459 88.1197 44.9788C88.1197 44.9788 88.5427 42.9595 88.7541 42.9595C88.5427 42.9595 88.5427 42.9595 88.7541 42.9595ZM91.7144 44.2445C91.7144 44.2445 91.9259 43.1431 91.9259 42.0417C91.9259 41.8581 92.1373 41.8581 92.1373 42.0417C92.1373 44.2445 91.7144 44.6116 91.7144 44.2445ZM94.0404 41.491C94.0404 41.6746 93.8289 42.776 93.8289 42.4088C93.8289 42.4088 93.8289 41.6746 94.0404 41.491C93.8289 41.6746 93.1946 42.0417 92.9831 42.0417C92.5602 41.8581 93.6175 41.491 94.0404 41.491C93.8289 41.3075 94.0404 40.5732 94.0404 40.5732C94.0404 40.5732 94.2518 40.5732 94.2518 40.7568C94.2518 40.7568 94.2518 41.1239 94.0404 41.491C94.2518 41.3075 94.8862 40.9403 95.0976 40.9403C95.3091 40.5732 95.5205 40.7568 94.0404 41.491ZM96.1549 39.2882C96.3663 39.4718 96.1549 40.0225 95.9434 40.2061C95.3091 42.776 97.4236 40.7568 97.2121 38.9211C97.2121 38.7375 97.2121 38.7375 97.2121 38.7375C97.2121 38.7375 97.4236 38.7375 97.4236 38.9211C97.4236 41.491 95.0976 43.1431 95.732 40.5732C95.9434 39.6554 95.9434 39.2882 96.1549 39.2882C95.9434 39.2882 95.9434 39.1047 96.1549 39.2882ZM99.7496 38.3704L99.5381 38.554C99.3267 38.554 100.172 37.4526 100.595 37.6361C101.441 38.0033 99.7496 39.8389 99.1152 40.3896C99.3267 40.2061 100.384 39.6554 100.595 39.4718C101.23 39.1047 99.961 40.2061 99.3267 40.3896C99.1152 40.3896 99.1152 40.3896 99.1152 40.3896C99.1152 40.2061 99.5381 39.8389 99.7496 39.6554C100.172 39.2882 101.018 38.0033 100.595 37.6361H100.384C99.961 38.0033 99.7496 38.1868 99.7496 38.3704ZM101.23 38.0033C103.979 36.3512 101.864 38.0033 100.384 38.7375C100.172 38.554 101.018 38.1868 101.23 38.0033ZM102.498 36.5347C102.498 36.5347 101.864 36.9019 101.653 37.0854C101.441 37.0854 100.384 37.8197 100.384 37.8197H100.172C100.384 37.6361 102.287 36.7183 102.498 36.5347C102.71 36.5347 102.71 36.5347 102.498 36.5347ZM103.556 35.6169C103.767 35.8005 103.556 36.3512 103.344 36.5347C102.71 39.1047 104.613 37.0854 104.613 35.2498C104.613 35.0662 104.613 35.0662 104.613 35.0662C105.036 34.8827 104.824 37.4526 103.556 38.0033C103.133 38.1868 102.921 38.0033 102.921 37.6361C102.921 37.4526 103.344 35.6169 103.556 35.6169C103.344 35.6169 103.344 35.4334 103.556 35.6169ZM105.882 37.269C105.882 37.269 106.305 36.7183 106.305 36.5347C106.305 36.3512 106.305 36.3512 106.093 36.3512C105.882 36.3512 105.882 36.3512 106.093 36.1676C106.305 35.8005 106.939 35.9841 106.305 36.7183C106.305 36.9019 105.882 37.4526 105.882 37.269ZM107.996 35.4334L108.419 33.2306C107.996 33.2306 109.053 32.4963 109.688 32.4963C110.322 32.4963 109.688 33.4141 109.265 33.7813C108.63 34.332 108.208 34.332 109.476 34.6991C109.476 34.6991 109.688 34.6991 109.688 34.8827C109.688 35.2498 108.419 34.8827 108.208 34.6991C108.208 34.8827 107.996 35.2498 107.996 35.6169C108.208 35.4334 108.208 35.6169 107.996 35.4334ZM108.631 34.1484C108.842 33.7813 109.899 33.2306 109.899 32.6799C109.899 32.3127 109.265 32.6799 108.842 33.047C108.842 33.2306 108.631 34.1484 108.631 34.1484ZM111.379 34.332C111.379 34.332 111.591 33.2306 111.591 32.1292C111.591 31.9456 111.802 31.9456 111.802 32.1292C111.802 34.5155 111.379 34.8827 111.379 34.332ZM113.705 31.5785C113.705 31.5785 113.494 32.4963 113.494 32.6799C113.282 32.6799 113.494 31.9456 113.705 31.5785C113.494 31.762 112.648 32.1292 112.648 32.1292C112.648 32.1292 112.437 31.9456 112.648 31.9456C113.071 31.762 113.071 31.762 113.705 31.5785C113.494 31.3949 113.705 30.6607 113.705 30.6607C113.917 30.4771 113.705 31.2113 113.705 31.3949C113.917 31.2113 114.551 30.8442 114.763 30.8442C114.974 30.6607 114.974 30.8442 113.705 31.5785ZM115.185 31.9456C114.974 31.9456 115.397 31.0278 115.397 30.8442C115.608 30.2935 115.608 29.9264 115.608 29.7428C115.185 29.7428 116.243 29.0086 116.877 29.0086C117.089 29.0086 117.089 29.0086 117.089 29.1921C117.089 29.5593 116.666 29.9264 116.454 30.11C115.82 30.6607 115.397 30.6607 116.666 31.0278C116.666 31.0278 116.877 31.0278 116.877 31.2114C116.877 31.3949 116.243 31.3949 116.031 31.2114C115.608 31.2114 115.397 31.0278 115.397 30.8442C115.397 31.0278 115.185 31.2114 115.185 31.5785V31.762C115.185 31.762 115.185 32.1292 115.185 31.9456ZM115.608 30.6607C116.031 30.2935 116.243 30.11 116.666 29.5593C117.089 29.0086 116.666 28.825 115.82 29.5593C115.82 29.7428 115.608 30.4771 115.608 30.6607ZM118.992 28.825L118.78 29.0086C118.569 29.0086 119.415 27.9072 119.837 28.0907C120.472 28.2743 119.415 29.7428 118.992 30.11C118.78 30.2935 118.569 30.6607 118.357 30.8442C118.357 30.8442 118.78 30.6607 118.992 30.4771C120.26 29.7428 120.049 29.9264 119.203 30.4771C118.992 30.6607 118.146 31.2114 118.146 31.0278C118.146 30.8442 118.992 29.9264 119.203 29.7428C120.049 28.6414 119.626 28.2743 119.415 28.2743C119.203 28.4579 118.992 28.6414 118.992 28.825ZM120.472 28.4579C122.375 27.3565 122.375 27.54 120.26 28.825C119.415 29.1921 119.203 29.1921 120.472 28.4579ZM121.74 26.9893L121.318 27.1729C118.357 29.1921 119.626 27.9072 121.74 26.9893C121.952 26.9893 121.952 26.8058 121.74 26.9893ZM122.163 28.4579L122.586 26.2551C122.163 26.2551 123.221 25.5208 123.855 25.5208C124.278 25.5208 124.066 26.0715 123.855 26.2551C123.221 27.1729 122.163 26.9893 123.432 27.3565C124.701 27.7236 122.798 27.7236 122.586 27.1729C122.586 27.3565 122.375 27.7236 122.375 28.0907C122.375 28.2743 122.163 28.4579 122.163 28.4579ZM122.586 27.1729C122.798 26.8058 123.855 26.2551 123.855 25.7044C123.855 25.3373 123.221 25.7044 122.798 26.0715C122.798 26.2551 122.586 26.9893 122.586 27.1729ZM75.4327 56.9105L75.8556 57.4612C75.8556 57.6448 75.6441 57.6448 75.4327 57.0941C73.7411 59.1133 74.164 55.442 75.6441 54.7077C76.067 54.3406 76.7014 55.2584 75.4327 56.9105ZM75.2212 56.9105C75.0098 56.5434 74.7983 55.8091 75.0098 55.442C73.9525 56.7269 74.164 58.1955 75.2212 56.9105ZM75.4327 56.7269C75.6441 56.3598 76.2785 55.2584 75.8556 54.8913C75.4327 54.5242 74.7983 55.442 75.4327 56.7269ZM79.0274 54.3406C79.0274 54.3406 76.9128 55.8091 76.9128 55.6256C76.7014 55.6256 79.0274 54.157 79.0274 54.3406ZM79.0274 53.6063L78.6045 53.7899C75.6441 55.8091 76.9128 54.5242 79.0274 53.6063C79.2388 53.6063 79.2388 53.4228 79.0274 53.6063ZM80.0846 52.5049C80.0846 52.3214 80.0846 52.3214 80.0846 52.5049C80.5075 52.6885 79.6617 55.0749 79.6617 55.0749C79.4503 55.2584 79.6617 54.157 79.8732 53.7899C80.0846 52.6885 80.0846 52.5049 80.0846 52.5049ZM81.3533 52.1378C81.1419 52.1378 81.1419 52.1378 81.5648 51.7707C81.7762 51.5871 82.1991 51.22 82.4106 51.4035C83.2564 51.7707 81.5648 53.6063 80.9304 54.157C81.1419 54.157 82.4106 53.0556 82.4106 53.2392C82.4106 53.4228 81.1419 54.157 80.9304 54.157C80.719 54.157 80.719 54.157 80.719 54.157C80.719 53.9735 81.1419 53.6063 81.3533 53.4228C82.622 51.9542 82.4106 51.22 81.9877 51.5871C81.7762 51.7707 81.5648 52.1378 81.3533 52.1378ZM83.2564 53.2392L83.6793 51.0364C83.4678 51.0364 83.6793 50.8529 83.8907 50.6693C85.1594 49.7515 86.0052 50.3022 84.1022 51.7707C83.8907 51.9542 83.6793 51.9542 84.5251 52.1378C85.7938 52.5049 83.8907 52.5049 83.6793 51.9542C83.6793 52.1378 83.4678 53.2392 83.2564 53.2392ZM83.8907 51.7707L84.1022 51.5871C85.5823 50.3022 85.1594 49.935 84.1022 50.8528L83.8907 51.7707ZM86.2167 50.1186C86.2167 50.4857 85.5823 51.7707 86.0052 51.5871C86.4281 51.4035 86.6396 51.0364 86.6396 51.0364C87.0625 50.8529 86.0052 51.9542 85.7938 51.7707C85.5823 51.7707 86.0052 50.4857 86.0052 50.1186C85.5823 50.6693 85.3709 50.4857 86.2167 50.1186C86.0052 49.7515 86.0052 49.7515 86.2167 49.5679V49.3843C86.4281 49.2008 86.4281 49.7515 86.2167 49.935C87.0625 49.3843 87.4854 49.3843 86.2167 50.1186ZM124.066 21.8495H124.701C124.701 22.0331 124.066 22.2166 123.644 22.0331C122.586 21.6659 123.644 19.6467 124.278 18.7289C124.489 18.5453 125.124 17.6275 125.124 17.9946C125.124 17.9946 124.278 19.096 124.066 19.2796C123.644 20.1974 123.009 21.6659 124.066 21.8495ZM125.335 21.1153L125.758 18.9125C125.547 18.7289 126.181 18.1782 126.392 18.1782C126.815 17.9946 127.238 17.9946 127.238 18.3618C127.238 18.7289 126.815 19.096 126.604 19.2796C125.969 19.8303 125.547 19.8303 126.815 20.0139C127.238 20.1974 127.027 20.381 126.392 20.1974C125.969 20.1974 125.758 20.0139 125.758 19.8303C125.758 20.0139 125.547 21.1153 125.335 21.1153ZM125.758 19.8303C125.969 19.4632 127.027 18.9125 127.027 18.3618C127.027 17.9946 126.392 18.3618 125.969 18.7289C125.969 18.7289 125.758 19.6467 125.758 19.8303ZM129.564 17.9946C129.776 17.9946 129.776 17.9946 129.776 17.9946C129.776 17.9946 129.141 18.5453 128.93 18.5453C126.392 20.0139 127.661 18.9125 129.564 17.9946ZM129.776 17.0768L129.353 17.2604C126.392 19.4632 127.873 17.9946 129.776 17.0768C129.987 17.0768 129.987 16.8932 129.776 17.0768ZM131.044 16.159C131.467 15.4247 131.89 15.4247 131.89 16.3426C131.89 16.7097 131.89 17.0768 131.679 17.4439C130.833 19.096 129.776 17.8111 131.044 16.159ZM131.679 16.3426C131.679 15.6083 131.467 15.6083 131.044 16.159C130.833 16.3426 130.833 16.5261 130.833 16.8932C130.199 18.7289 131.679 17.9946 131.679 16.3426ZM132.313 17.9946C132.102 18.1782 131.89 18.1782 131.89 18.1782L132.524 17.4439C133.159 16.7097 133.37 16.3426 133.37 15.9754C133.582 15.6083 133.582 15.4247 133.582 15.2412C133.582 15.0576 133.582 14.874 133.582 14.874C133.582 14.6905 133.37 14.6905 133.37 14.6905H133.159H132.947C132.947 14.6905 132.947 14.6905 133.159 14.5069C133.37 14.5069 133.582 14.5069 133.793 14.5069C134.005 14.6905 134.005 14.874 134.005 15.2412C134.005 15.7919 133.793 16.3426 133.582 16.7097C133.37 16.8932 133.37 17.0768 133.159 17.4439C132.736 17.2604 132.524 17.6275 132.313 17.9946ZM124.489 31.2114C124.278 31.3949 123.855 31.5785 123.432 31.762C123.432 31.9456 123.009 33.2306 123.009 33.047C123.009 33.047 123.009 32.4963 123.221 32.3127C123.432 31.3949 123.644 30.4771 123.644 30.4771C123.855 30.2935 125.124 29.5593 125.124 29.7428C125.124 29.7428 124.912 29.9264 124.701 29.9264C124.489 30.11 124.278 30.11 124.066 30.2935C123.855 30.2935 123.855 30.4771 123.644 30.6607C123.644 30.8442 123.432 31.3949 123.432 31.5785C124.066 31.3949 124.912 30.8442 124.489 31.2114ZM126.604 30.8442C125.758 32.4963 124.278 32.3127 125.969 30.11C126.815 29.0086 127.238 29.5593 127.027 30.11C127.027 30.11 126.815 30.6607 126.604 30.8442C126.815 30.8442 126.815 31.2114 126.815 31.2114C126.815 31.2114 126.815 31.2114 126.604 31.2114C126.604 31.3949 126.604 31.0278 126.604 30.8442ZM126.815 30.11C126.815 29.9264 126.815 29.9264 126.815 29.7428C126.604 29.5593 126.181 29.9264 126.181 30.2935C124.489 32.3127 126.181 32.1292 126.815 30.11ZM128.507 29.5593C129.987 28.6414 130.41 28.6414 129.141 29.3757C129.141 29.3757 127.873 30.2935 127.661 30.11C127.45 30.11 128.295 29.7428 128.507 29.5593ZM129.776 28.0907C129.564 28.2743 127.873 29.1921 127.661 29.3757H127.45C127.661 29.1921 129.564 28.0907 129.776 28.0907C129.987 28.0907 129.987 27.9072 129.776 28.0907ZM130.833 26.9893C130.833 26.8058 130.833 26.9893 130.833 26.9893C131.044 27.1729 130.833 28.2743 130.833 28.4579C130.833 28.4579 130.621 29.5593 130.41 29.5593C130.199 29.7428 130.41 28.6414 130.621 28.2743C130.833 27.1729 130.833 26.9893 130.833 26.9893ZM131.467 29.0086C131.256 29.0086 131.256 28.825 131.256 28.825C131.256 28.825 131.467 28.825 131.679 28.825C131.679 28.825 131.679 28.825 131.679 28.6414C131.679 28.6414 132.102 26.9893 132.102 26.6222C132.102 26.6222 131.89 26.8058 131.89 26.6222C131.679 26.6222 131.89 26.4387 132.102 26.4387C133.582 25.3373 134.428 26.0715 132.736 27.3565C133.159 27.1729 133.37 27.1729 133.582 27.1729C134.216 26.9893 132.313 29.0086 131.467 29.0086ZM132.313 27.54C132.102 27.54 132.102 27.54 132.313 27.54C132.102 27.7236 131.89 28.6414 131.89 28.825C133.159 27.9072 134.005 26.6222 132.313 27.54ZM133.159 26.0715C132.947 26.0715 132.524 26.2551 132.313 26.4387C132.524 26.4387 132.313 27.1729 132.102 27.3565C132.102 27.3565 132.313 27.1729 132.524 27.1729C132.736 26.9893 132.947 26.8058 133.159 26.6222C133.159 26.4387 133.37 26.0715 133.159 26.0715ZM72.2609 62.9682C72.0495 63.1517 71.6266 63.3353 71.2037 63.5189C71.2037 63.7024 70.7808 64.9874 70.7808 64.8038L71.4151 62.2339C71.6266 62.0503 72.8953 61.3161 72.8953 61.4996L72.0495 62.0503C71.838 62.0503 71.838 62.2339 71.6266 62.4175C71.6266 62.601 71.4151 63.1517 71.4151 63.3353C71.838 63.1517 72.6838 62.601 72.2609 62.9682ZM73.9525 62.4175C75.8556 61.3161 75.8556 61.4996 73.7411 62.7846C72.8953 63.1517 72.6838 63.1517 73.9525 62.4175ZM75.2212 60.9489L74.7983 61.1325C72.0495 63.1517 73.1067 61.8668 75.2212 60.9489C75.4327 60.9489 75.4327 60.7654 75.2212 60.9489ZM75.6441 62.4175C75.4327 62.4175 75.4327 62.2339 75.4327 62.2339C75.4327 62.2339 75.6441 62.2339 75.8556 62.2339C75.6441 62.0503 75.8556 61.8668 75.8556 61.6832C76.2785 60.3983 76.2785 60.0311 76.2785 60.0311C76.067 60.2147 75.8556 60.0311 76.067 59.8476C77.5472 58.7462 78.393 59.4804 76.7014 60.7654C79.0274 59.4804 76.9128 62.4175 75.6441 62.4175ZM76.4899 60.9489C76.2785 61.1325 76.067 62.0503 76.067 62.2339C77.5472 61.4996 78.393 60.0311 76.4899 60.9489ZM76.4899 59.8476C76.7014 59.8476 76.4899 60.5818 76.2785 60.7654C76.4899 60.5818 76.9128 60.2147 77.1243 60.0311C77.7586 59.664 77.5472 59.2969 76.4899 59.8476ZM79.6617 61.3161C78.8159 62.2339 79.2388 61.3161 79.6617 60.0311C79.0274 61.1325 77.9701 61.3161 78.6045 60.0311C78.8159 59.664 79.2388 58.9297 79.6617 58.7462C80.0846 58.5626 80.2961 59.1133 79.8732 58.9297C79.2388 58.7462 78.1815 61.1325 78.8159 60.7654C79.4503 60.3983 79.8732 59.2969 79.8732 59.2969C80.0846 59.1133 79.8732 59.8476 79.6617 60.2147C79.4503 60.7654 79.2388 61.3161 79.2388 61.4996C80.0846 60.7654 80.2961 60.5818 79.6617 61.3161ZM82.1991 57.4612C82.622 57.8283 82.4106 59.2969 81.3533 59.8476C80.5075 60.2147 80.5075 59.664 80.5075 58.9297C80.5075 58.5626 80.5075 58.379 80.5075 58.379L80.9304 58.1955C80.9304 58.1955 80.9304 59.1133 80.9304 59.2969C80.9304 60.0311 81.9877 59.664 81.9877 58.379C81.9877 58.0119 81.9877 57.8283 81.7762 57.6448L82.1991 57.4612ZM84.1022 56.7269C83.8907 56.7269 83.6793 56.9105 83.4678 57.0941C83.0449 57.4612 83.2564 57.6448 83.6793 57.6448C84.5251 57.6448 84.1022 58.379 83.4678 58.7462C83.2564 58.9297 82.622 58.9297 82.622 58.7462C82.622 58.7462 82.622 58.5626 82.8335 58.5626C83.4678 58.7462 84.5251 57.6448 83.4678 57.8283C83.2564 57.8283 83.0449 57.8283 83.0449 57.6448C83.0449 57.2776 83.6793 56.7269 83.8907 56.5434C84.3136 56.3598 84.3136 56.9105 84.1022 56.7269ZM85.1594 55.9927C85.3709 55.9927 84.1022 60.2147 84.7365 56.9105C84.7365 56.7269 84.948 55.8091 85.1594 55.9927ZM85.3709 55.442C85.1594 55.442 84.948 55.442 85.1594 55.2584C85.3709 54.8913 85.5823 55.2584 85.3709 55.442ZM87.4854 54.8913C87.6968 55.0749 87.4854 55.6256 87.4854 55.8091C87.0625 57.0941 86.851 56.9105 87.0625 56.5434C87.0625 56.1762 87.4854 55.442 87.4854 55.0749C87.4854 54.3406 86.6396 55.8091 86.4281 56.3598C85.1594 58.5626 86.2167 56.5434 86.2167 55.442C86.2167 55.2584 86.4281 55.2584 86.4281 55.442C86.4281 55.8091 86.2167 56.5434 86.0052 56.7269C86.0052 56.5434 86.851 54.7077 87.4854 54.8913ZM91.2915 52.8721C91.2915 53.0556 91.2915 53.7899 91.2915 54.157C91.2915 54.3406 91.2915 54.5242 91.503 54.3406V54.5242C91.2915 54.7077 91.0801 54.7077 91.0801 54.3406C90.6572 55.2584 89.3885 55.6255 89.3885 54.5242C89.3885 53.4228 90.6572 52.6885 91.0801 53.0556C91.0801 52.8721 91.0801 52.8721 91.0801 52.6885L91.2915 52.8721ZM90.8686 54.3406C90.8686 54.157 90.8686 53.9735 90.8686 53.7899C90.6572 53.2392 89.8114 53.7899 89.8114 54.7077C89.5999 55.442 90.6572 55.0749 90.8686 54.3406ZM76.2785 65.9052C77.7586 64.9874 77.9701 64.9874 76.9128 65.7216C75.0098 66.823 75.0098 66.6395 76.2785 65.9052ZM77.1243 64.8038C74.164 66.6395 75.8556 65.171 77.5472 64.4367C77.7586 64.2531 77.9701 64.2531 77.1243 64.8038ZM77.9701 65.9052C77.7586 65.9052 77.7586 65.7216 77.7586 65.7216C77.7586 65.7216 77.9701 65.7216 78.1815 65.7216C77.9701 65.5381 78.1815 65.3545 78.1815 65.171C78.6045 63.886 78.6045 63.5189 78.6045 63.5189C78.393 63.7024 78.1815 63.5189 78.393 63.3353C79.8732 62.2339 80.719 62.9682 79.0274 64.2531C81.3533 62.9682 79.2388 65.9052 77.9701 65.9052ZM78.8159 64.4367C78.6044 64.6203 78.393 65.5381 78.393 65.7216C79.8732 64.9874 80.719 63.5189 78.8159 64.4367ZM78.8159 63.3353C79.0274 63.3353 78.8159 64.0696 78.6045 64.2531C78.8159 64.0696 79.2388 63.7024 79.4503 63.5189C80.0846 63.1517 79.8732 62.7846 78.8159 63.3353ZM80.5075 64.2531C80.5075 64.0696 80.5075 64.2531 80.5075 64.2531C81.3533 64.4367 82.8335 63.3353 81.5648 62.9682C81.1419 62.7846 80.9304 62.601 81.1419 62.4175C81.3533 62.0503 82.4106 61.3161 82.4106 61.4996L81.7762 62.0503C81.1419 62.601 81.3533 62.601 81.7762 62.7846C81.9877 62.7846 82.1991 62.9682 82.1991 63.1517C82.4106 64.0696 80.5075 64.9874 80.5075 64.2531ZM84.5251 62.7846C83.8907 63.5189 82.8335 63.7024 82.8335 62.7846C82.8335 61.8668 83.8907 61.1325 84.5251 60.9489V61.3161C83.0449 61.3161 82.8335 64.0696 84.5251 62.601V62.7846ZM84.948 62.4175C84.3136 61.8668 85.7938 59.8476 86.2167 60.2147C86.851 60.7654 85.3709 62.7846 84.948 62.4175ZM85.1594 62.2339C85.7938 61.8668 86.4281 60.2147 85.7938 60.3983C84.948 60.9489 84.7365 62.2339 85.1594 62.2339ZM88.1197 59.4804C87.9083 59.4804 87.6968 59.664 87.4854 59.8476C87.0625 60.2147 87.2739 60.3983 87.6968 60.3983C88.5427 60.3983 88.1197 61.1325 87.4854 61.4996C87.2739 61.6832 86.6396 61.6832 86.6396 61.4996C86.6396 61.4996 86.6396 61.3161 86.851 61.3161C87.4854 61.3161 88.3312 60.3983 87.4854 60.3983C87.2739 60.3983 87.0625 60.3983 87.0625 60.2147C87.0625 59.8476 87.6968 59.2969 87.9083 59.1133C88.3312 58.9297 88.3312 59.4804 88.1197 59.4804ZM91.9259 57.2776C91.9259 57.4612 91.9259 58.1955 91.9259 58.5626C91.9259 58.7462 91.9259 58.9297 92.1373 58.7462V58.9297C91.9259 59.1133 91.7144 59.1133 91.7144 58.7462C91.503 59.1133 91.2915 59.2969 91.0801 59.4804C89.8114 60.0311 90.0228 58.0119 91.0801 57.4612C91.2915 57.2776 91.7144 57.2776 91.7144 57.4612C91.7144 57.2776 91.7144 57.2776 91.7144 57.0941L91.9259 57.2776ZM90.8686 59.4804C91.0801 59.2969 91.2915 58.9297 91.503 58.7462C91.7144 58.1955 91.503 57.8283 90.8686 58.0119C90.0228 58.379 90.0228 59.8476 90.8686 59.4804ZM101.864 51.5871C102.498 51.4035 103.133 51.5871 103.133 52.1378C103.133 52.6885 102.921 53.0556 102.498 53.4228C102.287 53.6063 102.076 53.7899 101.864 53.9735C101.653 54.157 101.864 54.5242 101.653 54.7077C101.653 54.7077 101.653 54.7077 101.653 54.5242C101.653 54.157 101.653 53.9735 101.23 54.157C101.018 54.3406 100.807 54.3406 100.384 54.157C100.172 53.9735 100.172 53.7899 100.172 53.4228C100.172 53.0556 100.384 52.6885 100.595 52.3214C100.807 52.1378 101.018 51.9542 101.23 51.7707C101.441 51.7707 101.653 51.5871 101.864 51.5871ZM101.441 52.3214C101.23 52.3214 101.018 52.5049 100.807 52.6885C100.595 52.8721 100.595 53.2392 100.595 53.4228C100.595 54.157 101.441 53.9735 101.441 53.4228C101.441 53.2392 101.653 52.5049 101.441 52.3214ZM102.076 53.4228C102.287 53.4228 102.498 53.2392 102.71 52.8721C102.71 52.6885 102.921 52.1378 102.71 51.9542C102.498 51.7707 102.076 51.7707 101.864 51.9542C101.653 52.1378 101.653 52.8721 101.864 53.0556C101.864 53.2392 101.864 53.4228 102.076 53.4228ZM73.9525 65.5381C74.5869 65.3545 75.2212 65.5381 75.2212 66.0888C75.2212 66.6395 75.0098 67.0066 74.5869 67.3737C74.3754 67.5573 74.164 67.7409 73.9525 67.9244C73.7411 68.108 73.9525 68.4751 73.7411 68.6587C73.7411 68.6587 73.7411 68.6587 73.7411 68.4751C73.7411 68.108 73.7411 67.9244 73.3182 68.108C73.1067 68.2916 72.8953 68.2916 72.4724 68.108C72.2609 67.9244 72.2609 67.5573 72.2609 67.3737C72.2609 67.0066 72.4724 66.6395 72.6838 66.2724C72.8953 66.0888 73.1067 65.9052 73.3182 65.7216C73.5296 65.7216 73.7411 65.7216 73.9525 65.5381ZM73.3182 66.4559C73.1067 66.4559 72.8953 66.6395 72.6838 66.823C72.6838 67.0066 72.6838 67.1902 72.6838 67.5573C72.6838 68.2916 73.5296 68.108 73.5296 67.5573C73.5296 67.1902 73.5296 66.4559 73.3182 66.4559C73.5296 66.4559 73.3182 66.4559 73.3182 66.4559ZM73.9525 67.3737C74.164 67.3737 74.3754 67.1902 74.5869 66.823C74.5869 66.6395 74.7983 66.0888 74.5869 65.9052C74.3754 65.7216 73.9525 65.7216 73.7411 65.9052C73.5296 66.0888 73.5296 66.823 73.7411 67.0066C73.7411 67.3737 73.9525 67.3737 73.9525 67.3737ZM104.401 51.7707C106.093 50.8528 105.882 51.0364 105.459 51.4035C102.921 52.8721 103.344 52.5049 104.401 51.7707ZM103.767 51.5871C103.556 51.5871 103.767 51.5871 103.767 51.5871C103.556 51.4035 105.459 50.3022 105.67 50.3022C106.516 49.935 104.613 51.22 103.767 51.5871ZM106.516 51.4035C107.15 51.0364 107.785 50.4857 107.785 50.4857C108.419 50.1186 106.093 52.1378 106.093 51.4035C106.093 51.22 106.516 49.3843 106.516 49.2008C106.516 49.0172 106.516 49.0172 106.516 49.0172C107.362 49.5679 106.093 51.7707 106.516 51.4035ZM109.053 48.0994C109.053 47.9158 109.053 48.0994 109.053 48.0994C109.265 48.0994 109.265 48.0994 109.053 48.0994C109.265 49.3843 107.996 52.5049 108.842 49.5679C109.053 48.2829 109.053 48.0994 109.053 48.0994ZM122.163 38.0033C122.163 38.1868 121.318 38.554 121.106 38.7375C121.106 38.9211 121.106 39.1047 120.895 39.2882C120.683 39.8389 120.472 40.2061 121.952 39.1047C122.375 38.7375 122.375 38.9211 121.74 39.4718C119.415 41.1239 120.895 38.9211 120.895 37.8197C120.895 37.6361 121.318 37.269 121.74 37.269C123.221 36.5347 122.586 37.0854 121.106 37.8197C121.106 38.0033 120.895 38.554 120.895 38.7375C121.106 38.3704 122.163 37.8197 122.163 38.0033ZM123.432 36.7183C123.644 36.7183 123.009 39.1047 122.798 38.7375L123.221 37.0854C123.221 37.0854 123.221 36.7183 123.432 36.7183ZM123.644 36.1676C123.432 36.1676 123.221 36.1676 123.432 35.9841C123.644 35.8005 123.855 36.1676 123.644 36.1676ZM125.969 36.3512C126.181 36.1676 126.181 36.1676 125.969 36.3512C125.969 36.5347 124.066 37.6361 124.066 37.6361C123.855 37.4526 125.758 36.3512 125.969 36.3512ZM125.758 35.8005C122.798 37.6361 124.489 36.1676 126.181 35.4334C126.392 35.2498 126.392 35.2498 125.758 35.8005ZM126.815 35.9841C127.873 33.047 128.084 33.5977 128.507 34.6991C128.93 35.6169 128.93 35.6169 128.084 36.1676C126.181 37.4526 126.604 36.9019 126.815 35.9841ZM127.873 34.1484C127.45 34.8827 127.027 35.9841 126.815 36.7183C127.238 36.5347 128.084 35.9841 128.507 35.6169C128.295 35.0662 128.084 34.5155 127.873 34.1484ZM131.89 31.762V31.9456C133.582 31.2114 133.582 33.4141 131.89 34.332V34.5155L131.467 34.6991V34.5155C129.776 35.2498 129.776 33.047 131.467 32.1292V31.9456L131.89 31.762ZM131.467 32.3127C130.41 32.8634 130.199 34.6991 131.467 34.1484V32.3127ZM131.89 34.1484C132.947 33.4141 133.159 31.762 131.89 32.3127V34.1484ZM123.221 42.0417C123.432 41.8581 123.432 42.0417 123.221 42.2253C123.009 42.4088 122.586 42.5924 122.375 42.776C122.375 43.1431 121.952 43.8774 122.163 43.8774C122.798 43.5102 123.432 42.9595 123.432 42.9595C123.855 42.776 122.375 44.0609 121.952 44.0609C121.74 44.0609 121.952 43.5102 121.952 43.3267C122.586 41.491 121.952 41.491 123.855 40.7568C124.066 40.5732 124.278 40.7568 123.432 41.1239C123.221 41.3074 123.009 41.3075 123.009 41.491C122.798 41.491 122.798 41.6746 122.798 41.6746C122.798 41.8581 122.586 42.4088 122.586 42.5924C122.586 42.4088 123.009 42.2253 123.221 42.0417ZM124.701 40.7568C124.912 40.7568 124.278 42.776 124.066 42.9595C124.066 42.9595 123.855 42.9595 124.066 42.776C124.278 41.6746 124.278 41.8581 124.489 41.3074C124.489 41.1239 124.489 40.7568 124.701 40.7568ZM124.912 40.0225C125.124 40.3896 124.489 40.3896 124.701 40.0225C124.912 39.8389 124.912 39.8389 124.912 40.0225ZM127.45 40.2061C127.45 40.2061 126.815 40.7568 126.604 40.7568C126.604 40.7568 125.335 41.6746 125.124 41.491C125.124 41.491 127.45 40.0225 127.45 40.2061ZM127.45 39.4718L127.027 39.6554C124.278 41.6746 125.335 40.3896 127.45 39.4718C127.661 39.4718 127.661 39.2882 127.45 39.4718ZM128.084 38.3704C129.987 37.0854 130.199 38.1868 129.353 38.9211C130.41 38.554 130.199 40.2061 128.084 40.9403V38.3704ZM128.507 39.2882C129.987 38.554 129.776 37.6361 128.507 38.3704V39.2882ZM128.507 40.5732C128.93 40.3896 129.564 40.0225 129.564 39.4718C129.564 38.9211 128.93 39.2882 128.507 39.4718V40.5732ZM130.199 39.8389C130.199 39.6554 130.199 39.8389 130.199 39.8389C130.833 37.4526 130.833 36.7183 130.833 36.7183C130.833 36.7183 131.044 36.7183 131.044 36.9019C131.044 37.4526 130.833 38.3704 130.621 39.6554C130.41 39.4718 130.41 39.8389 130.199 39.8389ZM133.159 36.5347C133.582 36.9019 133.37 38.3704 132.313 38.9211C131.89 39.1047 131.467 39.1047 131.467 38.554C131.467 38.3704 131.467 37.6361 131.467 37.4526L131.89 37.269C131.89 37.269 131.89 38.1868 131.89 38.3704C131.89 38.7375 132.102 38.7375 132.313 38.7375C132.947 38.3704 132.947 37.269 132.736 36.9019L133.159 36.5347ZM75.2212 70.1272C75.2212 70.1272 75.0098 70.3108 75.0098 70.4944C74.7983 70.6779 74.3754 71.5957 74.164 71.7793C74.3754 71.9629 75.2212 72.33 75.0098 72.5136C74.7983 72.6971 74.164 72.1464 74.164 71.9629C73.7411 72.6971 73.5296 73.0643 73.5296 73.2478C73.3182 73.615 73.1067 73.4314 73.3182 73.4314C73.3182 73.4314 73.5296 73.0643 74.164 71.9629C73.9525 71.7793 73.3182 71.045 73.5296 70.8615H73.7411C73.7411 71.045 73.9525 71.2286 74.164 71.5957C74.3754 71.2286 74.7983 70.4944 75.0098 70.3108C75.0098 69.9437 75.2212 69.9437 75.2212 70.1272ZM75.8556 71.7793C75.8556 71.9629 76.9128 71.2286 77.1243 71.2286C77.7586 70.6779 77.1243 71.5957 76.067 72.1464C75.8556 72.33 75.6441 72.33 75.6441 72.1464L76.2785 69.7601C76.7014 69.2094 75.8556 71.4122 75.8556 71.7793ZM78.6045 69.7601C80.2961 68.8423 80.0846 69.0258 79.6617 69.393C77.1243 70.8615 77.5472 70.3108 78.6045 69.7601ZM80.0846 68.2916L79.6617 68.4751C76.4899 70.4944 78.1815 69.0258 80.0846 68.2916C80.0846 68.108 80.0846 68.108 80.0846 68.2916ZM82.1991 68.6587C82.622 68.4751 82.8335 67.1902 82.1991 67.0066L82.622 66.823C82.8335 66.823 83.0449 67.1902 83.0449 67.5573C83.0449 68.8423 81.9877 69.393 81.7762 68.8423C81.7762 69.0258 81.5648 69.393 81.1419 69.393C80.2961 69.9437 80.0846 68.4751 80.719 67.7409L81.1419 67.5573C80.719 68.108 80.719 69.393 81.1419 69.2094C81.5648 69.0258 81.5648 68.2916 81.5648 67.9244L81.9877 67.7409C81.9877 68.108 81.7762 68.8423 82.1991 68.6587ZM83.8907 67.7409C84.5251 67.3737 85.1594 66.823 85.1594 66.823C85.3709 66.6395 84.948 67.0066 84.7365 67.3737C84.3136 67.7409 83.4678 68.2916 83.4678 67.9244C83.4678 67.9244 84.1022 65.171 83.8907 65.5381C83.8907 65.5381 83.8907 65.3545 84.1022 65.5381C84.5251 65.7216 83.4678 68.108 83.8907 67.7409ZM87.9083 64.9874C87.9083 64.9874 87.2739 65.5381 87.0625 65.5381C87.0625 65.5381 85.7938 66.4559 85.5823 66.2724C85.5823 66.2724 87.9083 64.8038 87.9083 64.9874ZM86.0052 65.5381C85.7938 65.5381 85.7938 65.5381 86.0052 65.5381C85.7938 65.3545 87.6968 64.2531 87.9083 64.2531C88.7541 63.7024 86.6396 65.171 86.0052 65.5381ZM89.177 63.3353L88.9656 63.5189C88.7541 63.5189 89.5999 62.4175 90.0228 62.601C90.8686 62.9682 89.177 64.8038 88.5427 65.3545C88.7541 65.171 89.8114 64.6203 90.0228 64.4367H90.2343C90.2343 64.6203 88.9656 65.3545 88.7541 65.3545H88.5427C88.5427 65.3545 88.5427 65.171 88.7541 65.171C89.177 64.8038 89.177 64.6203 89.5999 64.2531C90.4457 62.9682 90.0228 62.2339 89.177 63.3353ZM91.503 62.4175C90.0228 63.1517 91.7144 61.8668 93.1946 61.3161C93.406 61.1325 93.6175 61.3161 92.7717 61.6832V61.8668C92.5602 62.2339 92.5602 62.9682 92.7717 63.3353C92.9831 63.5189 92.5602 63.7024 92.5602 63.5189C92.3488 63.1517 92.5602 62.2339 92.7717 61.8668C92.5602 62.0503 92.1373 62.2339 91.7144 62.4175C91.7144 62.601 91.7144 62.9682 91.7144 63.5189C91.503 64.8038 90.8686 64.8038 91.2915 64.2531C91.503 63.886 91.7144 63.3353 91.7144 62.7846C91.503 62.601 91.503 62.4175 91.503 62.4175ZM94.0404 62.7846C94.6747 62.4175 95.3091 61.8668 95.3091 61.8668C95.9434 61.4996 93.6175 63.5189 93.6175 62.7846C93.6175 62.7846 94.2518 60.0311 94.0404 60.3983C94.0404 60.3983 94.0404 60.2147 94.2518 60.3983C94.6747 60.7654 93.6175 62.9682 94.0404 62.7846ZM95.9434 60.2147C96.7892 62.0503 96.1549 60.7654 96.5778 61.4996C96.7892 60.949 97.2121 60.2147 97.2121 59.664L97.635 59.4804C97.635 60.0311 97.2121 61.1325 96.7892 61.6832L96.3663 61.8668L95.5205 60.3983L95.9434 60.2147ZM98.2694 44.4281C98.2694 44.4281 98.2694 44.2445 97.2121 46.0802C97.2121 46.0802 97.4236 46.2637 97.635 46.2637C98.4808 46.8144 98.0579 46.998 97.0007 46.2637C96.7892 46.6308 95.9434 48.0994 95.9434 47.7322C95.9434 47.7322 96.3663 46.998 96.7892 46.2637C96.3663 45.8966 96.1549 45.5295 96.1549 45.3459C96.1549 45.1623 96.3663 45.1623 96.3663 45.3459C96.3663 45.5295 96.5778 45.713 96.7892 46.0802C97.0007 45.713 97.4236 44.9788 97.635 44.7952C98.0579 44.2445 98.2694 44.4281 98.2694 44.4281ZM99.7496 44.0609C99.961 43.8774 100.172 44.0609 100.172 44.0609C100.172 44.2445 100.172 44.2445 99.961 44.0609C99.3267 43.8774 98.0579 46.8144 99.5381 45.5295L99.961 45.1623C100.384 44.9788 99.3267 46.0802 98.6923 46.0802C98.4808 46.0802 98.4809 45.8966 98.4809 45.713C98.4809 45.5295 99.3267 44.4281 99.7496 44.0609ZM102.498 43.5102C102.71 43.3267 102.921 43.5102 102.498 43.6938C98.9038 45.8966 100.807 44.4281 102.498 43.5102ZM102.71 42.776L102.287 42.9595C101.441 43.5102 100.807 43.8774 100.595 43.8774H100.384C100.595 43.8774 102.498 42.776 102.71 42.776C102.921 42.776 102.921 42.5924 102.71 42.776ZM103.556 43.5102C103.556 42.9595 103.767 42.2253 103.767 41.6746C103.767 41.491 103.979 41.491 103.979 41.6746C103.767 43.8774 103.344 44.7952 103.556 43.5102ZM104.401 43.8774C104.19 43.8774 105.882 39.8389 105.882 40.0225C105.882 39.8389 106.093 40.0225 106.093 40.2061L104.613 43.6938C104.613 43.8774 104.613 44.0609 104.401 43.8774ZM108.208 41.6746C108.63 41.491 108.842 40.2061 108.208 40.0225L108.631 39.8389C108.842 39.8389 109.053 40.2061 109.053 40.5732C109.053 41.8581 107.996 42.4088 107.785 41.8581C107.785 42.0417 107.573 42.4088 107.15 42.4088C106.305 42.9595 106.093 41.491 106.727 40.7568L107.15 40.5732C106.939 40.9403 106.727 41.3074 106.727 41.6746C106.727 42.5924 107.573 42.2253 107.573 41.491V40.7568L107.996 40.5732C107.785 41.1239 107.573 41.8581 108.208 41.6746ZM111.379 38.0033C111.168 38.0033 110.745 38.3704 110.745 38.554C109.265 40.3896 110.111 41.1239 111.168 40.0225C112.014 39.1047 111.379 40.3896 110.534 40.7568C108.842 41.491 109.899 38.554 111.379 38.0033C111.591 38.0033 111.379 37.8197 111.379 38.0033ZM96.5778 49.7515C97.0007 49.5679 96.1549 52.5049 96.1549 52.3214C95.9434 52.3214 96.3663 51.22 96.3663 51.0364C96.5778 49.935 96.5778 49.7515 96.5778 49.7515ZM99.961 49.5679C99.7496 50.6693 99.3267 50.8529 99.5381 50.3022C99.961 49.2008 99.961 48.0994 99.1152 49.7515C98.2694 51.0364 98.0579 52.1378 98.4809 50.3022C98.6923 49.5679 98.4808 49.2008 98.0579 50.1186C97.8465 50.4857 97.0007 51.9542 97.0007 51.9542C96.7892 52.1378 97.2121 50.6693 97.2121 50.4857C97.2121 49.7515 97.635 49.7515 97.2121 51.5871C97.4236 51.22 98.0579 49.7515 98.4809 49.3843C98.6923 49.3843 98.9037 49.3843 98.9037 49.7515C98.9037 49.935 98.9037 50.1186 98.6923 50.3022C98.9037 49.7515 99.1152 49.3843 99.3267 49.2008C99.961 48.2829 100.384 48.2829 99.961 49.5679ZM102.287 48.6501C101.441 50.3022 99.961 49.935 101.653 47.9158C102.498 46.8144 102.921 47.3651 102.71 47.9158C102.71 48.4665 102.498 48.0994 102.498 48.8336C102.498 49.0172 102.498 49.0172 102.287 49.0172C102.287 49.2008 102.287 48.6501 102.287 48.6501ZM102.498 47.9158C102.498 47.7322 102.498 47.7322 102.498 47.5487C102.287 47.3651 101.864 47.7322 101.864 48.0994C100.172 50.1186 101.653 49.935 102.498 47.9158ZM104.401 48.0994C104.401 48.0994 104.19 48.0994 103.767 47.7322C103.556 48.0994 102.921 49.2008 102.921 48.8336L103.767 47.7322C103.556 47.5487 103.133 47.1815 103.344 46.998C103.344 46.998 103.556 46.8144 103.556 46.998C103.556 47.1815 103.767 47.3651 103.979 47.5487C103.979 47.3651 104.613 46.2637 104.824 46.2637C105.247 46.0801 104.613 46.8144 104.401 47.1815C104.19 47.3651 104.19 47.7322 103.979 47.7322C104.824 48.2829 103.556 47.1815 104.401 48.0994C104.613 48.0994 104.613 47.9158 104.401 48.0994ZM104.824 48.0994C104.824 48.0994 106.305 44.0609 106.305 44.2445C106.516 44.4281 105.882 45.5295 105.882 45.713C105.459 46.6308 105.459 46.998 105.036 47.9158C105.036 48.0994 105.036 48.2829 104.824 48.0994ZM109.265 43.6938C108.842 44.4281 108.842 44.7952 108.419 45.5295C108.419 45.713 107.996 46.6308 107.785 46.8144H107.573C107.362 46.6308 107.362 46.0802 107.362 45.713L107.15 45.8966C106.727 46.4473 106.727 46.2637 106.939 45.8966C107.15 45.5295 107.362 45.3459 107.362 45.713C107.362 45.8966 107.362 45.8966 107.362 46.0802C107.362 46.2637 107.362 46.2637 107.362 46.4473C107.362 46.6308 107.362 46.6308 107.573 46.8144C107.996 45.8966 108.208 45.1623 108.631 44.0609C109.476 42.9595 109.476 43.1431 109.265 43.6938ZM109.476 43.5102L109.265 43.6938C109.053 43.6938 109.265 43.3267 109.476 43.3267C110.322 42.4088 111.168 42.9595 110.111 44.2445C109.688 44.7952 109.476 45.1623 109.053 45.713C109.053 45.713 109.476 45.5295 109.688 45.3459C110.956 44.6116 110.745 44.7952 109.899 45.3459C108.631 46.0801 108.419 46.0802 109.265 45.1623C110.956 43.1431 110.322 42.5924 109.476 43.5102ZM111.168 45.1623C111.168 44.9788 111.591 44.6116 111.379 44.6116H111.168C111.168 44.4281 111.591 44.2445 111.591 44.6116C111.591 44.7952 111.591 44.9788 111.379 45.1623C110.956 45.5295 110.745 45.713 111.168 45.1623ZM103.344 58.379C103.344 58.5626 101.864 59.4804 101.653 59.4804C101.018 59.2969 103.344 57.2776 103.344 56.7269L102.71 56.9105C102.498 57.0941 101.864 57.4612 101.864 57.2776C101.864 56.9105 104.19 55.8091 103.556 57.0941C103.556 57.2776 101.864 59.2969 101.864 59.2969C101.864 59.4804 103.344 58.1955 103.344 58.379ZM104.613 56.9105C107.362 55.2584 105.459 56.7269 103.767 57.6448C103.767 57.4612 104.613 57.0941 104.613 56.9105ZM106.093 55.6256L105.67 55.8091C102.71 57.6448 103.979 56.5434 106.093 55.6256C106.093 55.442 106.093 55.442 106.093 55.6256ZM109.053 53.7899C108.419 55.0749 107.785 56.5434 107.785 56.5434C107.785 56.7269 107.573 56.9105 107.362 56.9105C107.15 56.9105 106.939 55.9927 106.939 55.8091C106.727 55.9927 106.727 56.1763 106.727 56.1763C106.516 56.5434 106.516 55.8091 107.15 55.6256C107.362 55.442 107.362 55.8091 107.362 55.9927C107.362 56.1763 107.362 56.5434 107.573 56.7269C107.996 55.8091 108.208 55.0749 108.631 53.9735C109.053 53.2392 109.265 53.2392 109.053 53.7899ZM109.265 55.6256H109.899C109.899 55.8091 109.265 55.9927 108.842 55.8091C107.996 55.442 108.631 53.9735 109.053 53.2392C110.111 51.4035 110.534 51.5871 110.322 51.9542C109.899 52.3214 109.688 52.6885 109.265 53.0556C108.842 54.157 108.208 55.6256 109.265 55.6256ZM112.648 51.5871C112.648 51.5871 112.648 51.4035 111.591 53.2392C111.591 53.2392 111.802 53.4228 112.014 53.4228C112.86 53.9735 112.437 54.157 111.379 53.4228C111.168 53.7899 110.322 55.2584 110.322 54.8913C110.322 54.8913 110.745 54.157 111.168 53.4228C110.956 53.0556 110.745 52.8721 110.745 52.5049C110.745 52.3214 110.956 52.3214 110.956 52.5049C110.956 52.6885 111.168 52.8721 111.379 53.2392C111.591 52.8721 112.014 52.1378 112.225 51.9542C112.648 51.4035 112.86 51.5871 112.648 51.5871ZM114.34 51.22C114.763 51.0364 114.974 51.4035 114.551 51.4035C113.917 51.22 112.437 54.5242 114.34 52.6885C114.551 52.5049 114.763 52.5049 114.34 52.8721C113.917 53.2392 113.282 53.6063 113.282 53.0556C113.071 52.6885 113.917 51.5871 114.34 51.22ZM115.185 51.7707C114.974 51.7707 116.454 50.6693 116.454 50.8528C116.454 51.0364 115.185 51.7707 115.185 51.7707ZM118.992 48.4665C118.992 48.4665 118.78 48.6501 118.78 48.8336C118.569 49.0172 118.146 49.935 117.934 50.1186C117.934 50.1186 118.146 50.3022 118.357 50.3022C119.203 50.8529 118.78 50.8529 118.357 50.6693C118.146 50.6693 117.934 50.4857 117.723 50.3022C116.666 52.1378 116.666 51.7707 116.666 51.5871C116.877 51.22 117.3 50.4857 117.511 50.1186C117.3 49.935 117.089 49.7515 117.089 49.3843C117.089 49.2008 117.3 49.2008 117.3 49.3843C117.3 49.5679 117.511 49.7515 117.723 50.1186C117.934 49.7515 118.357 49.0172 118.569 48.8336C118.992 48.2829 119.203 48.4665 118.992 48.4665ZM119.837 50.1186C120.472 49.7515 121.106 49.2008 121.106 49.2008C121.74 48.8336 119.415 50.8529 119.415 50.1186C119.415 50.1186 120.049 47.3651 119.837 47.7322C119.837 47.7322 119.837 47.5487 120.049 47.7322C120.472 48.0994 119.415 50.4857 119.837 50.1186ZM121.318 49.935C121.318 49.935 122.586 48.4665 122.798 47.5487C123.009 47.1815 123.221 46.2637 122.798 46.0802C122.798 46.0802 122.586 46.0802 122.375 45.8966C122.163 45.8966 122.375 45.713 122.375 45.713C123.009 45.3459 123.855 46.4473 122.375 48.6501C121.529 49.935 121.318 49.935 121.318 49.935ZM124.701 45.8966L124.489 46.0802C124.278 46.0802 124.489 45.713 124.701 45.713C125.547 44.7952 126.604 45.3459 124.912 47.3651C124.701 47.5487 124.489 47.9158 124.278 48.0994C124.489 48.0994 125.758 46.998 125.758 47.1815C125.758 47.3651 124.489 48.0994 124.278 48.0994C124.066 48.0994 124.066 48.0994 124.066 48.0994C124.066 47.9158 124.489 47.5487 124.701 47.3651C126.181 45.5295 125.335 44.9788 124.701 45.8966ZM127.661 45.3459C127.661 45.5295 127.661 45.713 127.45 45.8966C127.45 45.8966 127.45 46.2637 127.238 46.2637C127.238 46.2637 127.238 46.2637 127.238 46.0802C127.238 46.2637 127.238 46.0801 127.661 45.3459C127.45 45.5295 126.604 45.8966 126.604 45.8966C126.604 45.8966 126.392 45.713 126.604 45.713C127.661 45.1623 127.45 45.3459 127.661 44.4281C127.661 44.2445 127.661 44.2445 127.873 44.2445C128.084 44.2445 127.873 44.7952 127.873 44.9788C128.084 44.7952 128.718 44.4281 128.93 44.4281C128.718 44.4281 128.93 44.6116 127.661 45.3459ZM128.93 45.713C128.718 45.713 129.141 44.7952 129.141 44.6116C129.353 44.0609 129.353 43.6938 129.353 43.5102C128.93 43.5102 129.987 42.776 130.621 42.776C131.044 42.776 130.833 43.3267 130.621 43.5102C130.41 43.8774 130.199 44.0609 129.776 44.4281C129.564 44.6116 129.353 44.6116 130.199 44.7952C130.199 44.7952 130.41 44.7952 130.621 44.7952C130.833 44.7952 130.833 44.9788 130.621 44.9788C130.41 45.1623 129.564 44.7952 129.353 44.6116C129.353 44.7952 129.353 44.7952 129.353 44.9788C129.353 45.1623 129.353 45.3459 129.141 45.5295C129.141 45.5295 129.141 45.713 128.93 45.713ZM129.564 44.4281C129.776 44.0609 130.833 43.5102 130.833 42.9595C130.833 42.5924 130.199 42.9595 129.776 43.3267C129.776 43.5102 129.564 44.2445 129.564 44.4281ZM132.102 42.0417L131.89 42.2253C131.679 42.2253 132.524 41.1239 132.947 41.3074C133.159 41.491 133.159 41.8581 132.947 42.2253C132.736 42.5924 132.313 43.1431 132.102 43.5102C131.89 43.6938 131.679 44.0609 131.467 44.2445C131.679 44.0609 132.736 43.5102 132.947 43.3267H133.159C133.159 43.5102 131.89 44.4281 131.467 44.4281C131.256 44.4281 131.679 43.8774 131.89 43.6938C132.313 43.3267 132.524 42.9595 132.736 42.5924C132.947 42.2253 132.947 41.6746 132.524 41.8581C132.524 41.8581 132.313 42.0417 132.102 42.0417Z" fill="white"/>
<path d="M92.7714 107.208L72.895 97.2952C72.895 97.1116 72.6836 97.1116 72.6836 96.7445L92.56 106.657C92.56 107.024 92.7714 107.208 92.7714 107.208Z" fill="#B09529"/>
<path d="M92.56 106.841L72.6836 96.7444V94.5416L92.56 104.454V106.841Z" fill="#D3AB34"/>
<path d="M93.4062 103.353L73.5298 93.4403L87.9085 86.0977L107.785 96.1938L93.4062 103.353Z" fill="#FFCD39"/>
<path d="M92.56 104.454L72.6836 94.5416C72.6836 94.1744 73.1065 93.6238 73.5294 93.4402L93.4058 103.353C92.9829 103.536 92.56 104.087 92.56 104.454Z" fill="#EEC23E"/>
<path d="M93.4064 107.208C92.9834 107.391 92.5605 107.208 92.5605 106.84V104.454C92.5605 104.087 92.9834 103.536 93.4064 103.353L107.785 96.1936V96.5607L107.362 96.7443L106.516 98.2128L107.362 99.4978L107.785 99.6814V99.8649L93.4064 107.208Z" fill="#B09529"/>
<path d="M92.772 106.841C92.772 107.024 92.772 107.024 92.772 107.024H92.9835L107.362 99.8651L106.939 99.6816L106.093 98.5802L106.939 96.7445L93.1949 103.72C92.9835 103.72 92.772 103.904 92.772 104.087C92.5605 104.271 92.5605 104.454 92.5605 104.638L92.772 106.841Z" fill="#B09529"/>
<path d="M107.362 96.561L93.6177 103.537C93.4063 103.537 93.1949 103.72 93.1949 103.904C92.9834 104.087 92.9834 104.271 92.9834 104.454V106.657L107.362 99.4981V96.561Z" fill="#FFFFFA"/>
<path d="M82.4107 92.89L87.2741 90.5036L86.8512 90.3201L81.9878 92.7064L82.4107 92.89Z" fill="#60522B"/>
<path d="M82.1993 94.1748L90.023 90.3199L89.6001 90.1364L81.7764 93.9912L82.1993 94.1748Z" fill="#60522B"/>
<path d="M83.4683 94.909L91.0805 91.0542L90.6576 90.8706L83.0454 94.7255L83.4683 94.909Z" fill="#60522B"/>
</svg>
